<svg width="229" height="335" viewBox="0 0 229 335" fill="none" xmlns="http://www.w3.org/2000/svg">
<path d="M158.246 55.6232C158.901 55.4729 159.585 55.504 160.225 55.7132C160.28 55.7076 160.713 55.8823 160.435 55.7765C160.611 55.8431 160.783 55.9198 160.95 56.0062C161.119 56.0914 161.284 56.1853 161.443 56.2875C161.825 56.5165 161.3 56.1259 161.632 56.4232C162.099 56.7967 162.481 57.2641 162.755 57.7951C163.01 58.3225 163.143 58.9009 163.143 59.4868C163.159 59.647 163.174 59.8003 163.141 59.9653C163.152 59.6477 163.093 60.2516 163.085 60.3157C163.078 60.3798 163.018 60.625 162.977 60.7768C162.936 60.9287 162.819 61.2359 162.926 60.9719C162.795 61.3125 162.624 61.6366 162.418 61.9374C162.59 61.695 162.33 62.0447 162.285 62.0914C162.241 62.1381 162.005 62.3868 161.865 62.5345C161.725 62.6822 161.993 62.4725 161.71 62.6697L161.336 62.9393C161.162 63.0513 160.982 63.1538 160.797 63.2466C161.059 63.1219 160.622 63.3205 160.608 63.3219C160.439 63.3881 160.268 63.4404 160.097 63.4927C160.035 63.499 159.539 63.605 159.83 63.5617C159.473 63.6129 159.112 63.6326 158.752 63.6206C158.328 63.6478 157.932 63.8417 157.65 64.1599C157.369 64.4781 157.224 64.8948 157.248 65.3191C157.281 65.7401 157.475 66.1321 157.79 66.4128C158.106 66.6934 158.518 66.8408 158.94 66.8238C160.508 66.8641 162.047 66.3932 163.324 65.4822C164.602 64.5712 165.548 63.2695 166.021 61.7735C166.493 60.2775 166.466 58.6684 165.944 57.189C165.422 55.7095 164.433 54.44 163.126 53.5719C161.647 52.577 159.851 52.1656 158.086 52.4171C157.665 52.4547 157.274 52.6514 156.994 52.9672C156.713 53.283 156.563 53.694 156.575 54.1164C156.604 54.5398 156.799 54.9349 157.116 55.2163C157.434 55.4976 157.85 55.6428 158.274 55.6204L158.246 55.6232Z" fill="#263238"/>
<path d="M141.552 36.0046L80.6732 42.8621C73.228 43.7008 67.8723 50.4162 68.7109 57.8614L78.7331 146.836C79.5718 154.281 86.2872 159.637 93.7324 158.798L154.611 151.94C162.057 151.102 167.412 144.386 166.574 136.941L156.551 47.9669C155.713 40.5217 148.997 35.166 141.552 36.0046Z" fill="#011126"/>
<path d="M80.0044 90.3086C79.9863 90.1909 79.9744 90.0724 79.9687 89.9534L79.8633 88.9017C79.769 87.9614 79.6328 86.6032 79.4233 84.8655C79.0699 81.3411 78.5607 76.2636 77.877 70.0076C77.5627 66.8733 77.2176 63.4326 76.8481 59.7481C76.7081 58.7828 76.833 57.7976 77.2095 56.8978C77.6001 55.9654 78.2532 55.1667 79.0895 54.5987C79.521 54.3174 79.9931 54.1039 80.4893 53.9659C80.9863 53.8392 81.4943 53.76 82.0063 53.7293L85.0779 53.4213L112.067 50.7146L139.064 48.0072L142.136 47.6992C142.646 47.6272 143.162 47.6037 143.676 47.6291C144.188 47.6661 144.691 47.7818 145.167 47.9721C146.101 48.3602 146.9 49.0139 147.466 49.852C148.016 50.6582 148.334 51.5995 148.386 52.5738C148.756 56.2583 149.101 59.6991 149.415 62.8333C150.044 69.1019 150.504 74.1774 150.843 77.7031C151.018 79.4443 151.154 80.8025 151.213 81.7463L151.319 82.798C151.343 83.0348 151.354 83.1532 151.354 83.1532C151.336 83.0355 151.325 82.917 151.319 82.798C151.294 82.5473 151.259 82.199 151.213 81.7463C151.119 80.806 150.983 79.4478 150.773 77.7101C150.42 74.1857 149.877 69.1187 149.227 62.8522C148.913 59.7179 148.568 56.2772 148.198 52.5927C148.144 51.6719 147.841 50.7831 147.321 50.0213C146.773 49.2473 146.011 48.6491 145.13 48.2994C144.683 48.1221 144.212 48.0151 143.733 47.9822C143.237 47.9527 142.739 47.9766 142.249 48.0537L139.177 48.3617L112.18 51.0691L85.1908 53.7758L82.1192 54.0838C81.6256 54.1067 81.1356 54.1794 80.6566 54.3009C80.1796 54.4307 79.7254 54.6328 79.3097 54.9003C78.5175 55.4189 77.8925 56.156 77.5104 57.0224C77.1521 57.8723 77.0315 58.8035 77.1615 59.7166C77.531 63.4012 77.8761 66.8419 78.1904 69.9762C78.8191 76.2447 79.2788 81.3202 79.6183 84.8459C79.793 86.5872 79.9292 87.9454 80.0235 88.8856L80.1289 89.9374C80.0064 90.1888 80.0044 90.3086 80.0044 90.3086Z" fill="#263238"/>
<path opacity="0.3" d="M163.886 147.71C164.065 147.467 156.15 105.649 156.15 105.649L146.917 104.211L153.863 144.149L159.515 150.85C161.22 150.201 162.726 149.118 163.886 147.71Z" fill="black"/>
<path d="M141.179 57.377C142.075 57.2871 142.729 56.4877 142.639 55.5914C142.549 54.6951 141.749 54.0414 140.853 54.1313C139.957 54.2212 139.303 55.0206 139.393 55.9169C139.483 56.8132 140.282 57.4669 141.179 57.377Z" fill="#263238"/>
<path d="M141.739 62.9699C142.636 62.8801 143.289 62.0806 143.2 61.1843C143.11 60.2881 142.31 59.6343 141.414 59.7242C140.518 59.8141 139.864 60.6136 139.954 61.5098C140.044 62.4061 140.843 63.0598 141.739 62.9699Z" fill="#263238"/>
<path d="M88.3218 71.3873C88.3218 71.3873 79.5263 74.8793 77.5604 76.3217C75.5946 77.7641 58.2222 98.7121 57.5948 99.3308C57.1456 99.7628 49.3168 92.6897 44.7149 87.9101L39.1538 85.4919L27.9991 96.0446L28.8869 102.231C34.0786 108.893 44.4667 121.703 49.0054 124.66C55.0301 128.615 62.5935 128.131 68.2861 125.055C71.6567 123.24 85.206 110.189 85.206 110.189L92.7052 106.538L88.3218 71.3873Z" fill="#E0E0E0"/>
<path d="M73.678 98.5692C74.0816 99.2112 74.4402 99.8805 74.7513 100.572L77.187 105.499L79.6687 110.392C80.0436 111.041 80.3765 111.712 80.6653 112.403C80.1962 111.805 79.7855 111.163 79.4389 110.486C78.7323 109.262 77.8145 107.546 76.8409 105.625C75.8673 103.703 75.0644 101.941 74.4922 100.654C74.1614 99.984 73.889 99.2863 73.678 98.5692Z" fill="#263238"/>
<path d="M78.5351 116.486C78.225 116.289 77.9358 116.061 77.6719 115.806C77.1271 115.354 76.3754 114.662 75.4766 113.768C70.7909 109.089 67.1171 103.497 64.6834 97.3395C64.2206 96.1619 63.8839 95.1896 63.6964 94.5119C63.5707 94.1673 63.4785 93.8114 63.4209 93.4491C63.5858 93.7777 63.7236 94.1191 63.8329 94.4701C64.0768 95.1491 64.4449 96.0831 64.9335 97.2371C66.2093 100.263 67.7532 103.169 69.5469 105.92C71.3504 108.659 73.3978 111.23 75.6639 113.601C76.5292 114.513 77.235 115.237 77.7687 115.719C78.0424 115.956 78.2985 116.212 78.5351 116.486Z" fill="#263238"/>
<path d="M57.4676 105.288C57.2714 104.298 57.196 103.287 57.2432 102.279C57.1724 101.268 57.2217 100.252 57.39 99.2529C57.5818 100.246 57.655 101.259 57.6082 102.27C57.6825 103.278 57.6353 104.291 57.4676 105.288Z" fill="#263238"/>
<path d="M58.5118 98.3032C58.0919 98.7463 61.6105 112.647 73.1161 121.307L75.4176 119.282C75.4176 119.282 62.4036 109.331 60.421 96.0153L58.5118 98.3032Z" fill="#011126"/>
<path d="M44.7427 87.9073C44.8138 87.9846 41.3209 91.2474 36.9402 95.1972C32.5595 99.1471 28.9531 102.33 28.8862 102.224C28.8193 102.118 32.3149 98.8832 36.6949 94.9263C41.075 90.9695 44.6793 87.8362 44.7427 87.9073Z" fill="#263238"/>
<path d="M33.5845 107.965C33.6997 107.748 33.8399 107.545 34.0022 107.36L35.25 105.772C36.3327 104.432 37.8429 102.585 39.5697 100.512L39.5942 100.756L38.7476 99.8913L37.566 98.7013L37.8098 98.6768C35.8669 100.349 34.1288 101.818 32.8754 102.858L31.3921 104.062C31.2203 104.219 31.031 104.356 30.828 104.47C30.9654 104.28 31.1282 104.11 31.312 103.965L32.7235 102.676C33.9302 101.591 35.63 100.091 37.5715 98.4052L37.701 98.2938L37.818 98.4087L38.9997 99.5987L39.8365 100.436L39.9535 100.551L39.847 100.682C38.1195 102.747 36.5605 104.529 35.4422 105.865L34.1053 107.406C33.9572 107.615 33.7821 107.802 33.5845 107.965Z" fill="#263238"/>
<path d="M28.6873 100.872L43.3892 87.3184L39.1817 85.4891L27.9992 96.0446L28.6873 100.872Z" fill="#011126"/>
<path d="M36.7635 71.3378C36.4033 70.9729 36.0368 70.6157 35.6578 70.2738C35.2645 70.7716 34.9363 71.3175 34.6811 71.8984C33.8554 73.5647 33.2358 75.3254 32.8361 77.1416C32.8361 77.1416 27.9349 70.9217 26.9817 69.4836C26.0106 67.9884 24.9458 66.5561 23.7939 65.1953C21.7624 65.1817 19.7537 65.6235 17.9155 66.4883C20.0212 69.246 23.9816 74.0126 23.3417 74.7873C22.8146 75.4241 18.9386 70.7967 15.6195 67.9357L15.2748 68.2165C14.2141 69.1667 13.3207 70.2884 12.6317 71.5348C14.958 73.6864 17.6842 76.1778 17.6642 76.7496C17.6442 77.3215 14.6903 75.1554 11.7038 73.4358C11.3092 74.4197 10.9968 75.4347 10.7699 76.4702C10.6294 77.1034 10.5251 77.747 10.4354 78.3962C13.3698 80.3672 17.571 81.9931 15.6256 82.0967C14.4367 82.1667 12.1936 81.3364 10.1993 80.7414C10.1084 82.0802 10.0816 83.4266 10.0757 84.7709C12.5752 85.9835 15.3211 86.4961 16.3564 87.7008C17.4922 88.9939 20.3631 93.3492 23.5953 94.7134C26.8276 96.0777 28.0013 96.0655 28.0013 96.0655L39.1124 86.6217C39.1124 86.6217 39.473 81.3092 39.4304 78.4994C39.4733 76.8819 39.7187 75.2761 40.1611 73.7196C38.8015 73.4902 37.7438 72.344 36.7635 71.3378Z" fill="#263238"/>
<path d="M11.7003 73.401C9.05375 71.8443 6.43585 70.5732 6.02244 71.7121C5.15106 74.1071 6.30183 74.4982 8.77103 77.0224C9.28287 77.5235 9.84399 77.9716 10.4459 78.3599C10.5355 77.7107 10.6398 77.0671 10.7803 76.4339C11.0028 75.3993 11.3105 74.3849 11.7003 73.401Z" fill="#455A64"/>
<path d="M23.7938 65.1953C21.5642 62.6049 18.666 60.2222 16.5644 61.9947C16.5644 61.9947 15.4865 63.1018 17.2459 65.5635C17.4333 65.8191 17.6612 66.1269 17.912 66.4535C19.7541 65.6002 21.7639 65.1702 23.7938 65.1953Z" fill="#455A64"/>
<path d="M6.30082 80.7314C5.90504 82.6776 6.71726 82.9197 9.38398 84.397C9.60783 84.5247 9.83772 84.6423 10.0736 84.75C10.0795 83.4057 10.1063 82.0593 10.1972 80.7205C8.22445 80.1304 6.49905 79.7618 6.30082 80.7314Z" fill="#455A64"/>
<path d="M40.1611 73.7196C40.5298 72.1349 40.776 70.8017 40.1127 69.7989C39.1009 68.2682 37.159 68.4067 35.6592 70.2877C36.0382 70.6296 36.4326 70.984 36.7649 71.3517C37.7438 72.344 38.8015 73.4902 40.1611 73.7196Z" fill="#455A64"/>
<path d="M15.2504 68.1837L15.5951 67.9029C14.662 67.0064 13.5637 66.2994 12.3613 65.8212C9.03439 64.9167 8.43322 67.1297 9.42126 68.4236C10.4292 69.5042 11.4927 70.5318 12.6073 71.502C13.2963 70.2557 14.1897 69.134 15.2504 68.1837Z" fill="#455A64"/>
<path d="M29.5148 88.4987C29.5148 88.4987 29.3684 88.3727 29.19 88.067C28.9427 87.6445 28.755 87.1898 28.6324 86.7159C28.4548 86.0007 28.409 85.2591 28.4974 84.5274C28.6099 83.6233 28.9355 82.7588 29.4474 82.005C30.2181 80.8653 31.3596 80.0275 32.6779 79.6339L32.5728 79.7781C32.5338 78.8357 32.5661 77.8918 32.6695 76.9543C32.8127 77.8787 32.8782 78.8134 32.8653 79.7487L32.8765 79.8602L32.7651 79.8713C31.5385 80.2919 30.4814 81.099 29.7526 82.1714C29.3193 82.8178 29.0197 83.5444 28.8716 84.3084C28.7235 85.0723 28.7298 85.8582 28.8901 86.6197C29.0481 87.2616 29.2569 87.89 29.5148 88.4987Z" fill="#455A64"/>
<path d="M25.7296 75.378C25.7359 75.4406 25.022 75.6881 23.9467 76.2603C22.5532 77.0362 21.3007 78.0418 20.2421 79.2348C19.1918 80.4366 18.3562 81.8103 17.7719 83.2955C17.3237 84.438 17.1818 85.1979 17.117 85.1833C17.0523 85.1687 17.0975 84.9883 17.1615 84.6442C17.2419 84.153 17.3653 83.6698 17.5302 83.2002C18.0597 81.6477 18.89 80.2149 19.9737 78.9836C21.0574 77.7523 22.3731 76.7466 23.8457 76.0242C24.2806 75.8044 24.7327 75.6202 25.1975 75.4735C25.3688 75.4141 25.5483 75.3818 25.7296 75.378Z" fill="#455A64"/>
<path d="M134.502 44.6025C134.397 44.613 133.984 41.2705 133.57 37.1332C133.155 32.996 132.895 29.6311 132.999 29.6207C133.104 29.6102 133.517 32.9597 133.932 37.0969C134.347 41.2341 134.599 44.5927 134.502 44.6025Z" fill="#263238"/>
<path d="M82.0909 42.929C82.0909 42.929 77.1348 12.0283 105.267 9.20706C134.555 6.26987 136.378 38.8354 136.631 41.3498C136.631 41.3498 141.13 64.818 112.937 68.1519C83.3487 71.6749 82.0909 42.929 82.0909 42.929Z" fill="#E0E0E0"/>
<path d="M83.9921 41.7534C83.9921 41.7534 79.1824 18.8369 106.213 16.1191C134.31 13.3014 134.252 37.7613 134.448 39.7185C134.448 39.7185 137.329 57.5731 111.227 60.7183C85.1261 63.8636 83.9921 41.7534 83.9921 41.7534Z" fill="#263238"/>
<path d="M136.914 64.2348L132.472 58.3135L91.3847 62.7153L89.6185 70.4974L85.3538 73.711L114.193 75.4128L142.574 68.0641L136.914 64.2348Z" fill="#E0E0E0"/>
<path d="M138.129 21.846L137.829 21.876C135.51 22.1086 133.818 24.1776 134.051 26.4971L135.587 41.8133C135.819 44.1329 137.888 45.8247 140.208 45.592L140.507 45.562C142.827 45.3294 144.519 43.2604 144.286 40.9409L142.75 25.6247C142.517 23.3052 140.448 21.6134 138.129 21.846Z" fill="#E0E0E0"/>
<path d="M133.957 35.1738C133.928 35.1085 133.909 35.0393 133.901 34.9683C133.885 34.8081 133.864 34.5992 133.79 34.3464C133.672 33.8024 133.587 32.9596 133.333 31.972C133.218 31.4559 133.084 30.8925 132.944 30.2663C132.804 29.6402 132.563 28.989 132.351 28.2786C132.139 27.5682 131.826 26.8328 131.535 26.0388L131.008 24.8535C130.918 24.6515 130.82 24.4433 130.728 24.2344C130.637 24.0254 130.512 23.8339 130.4 23.6271C128.402 19.7009 125.294 16.4483 121.463 14.2732C116.72 11.7032 111.326 10.5831 105.951 11.052C105.638 11.0834 105.317 11.1155 105.032 11.1442C103.662 11.2551 102.31 11.5276 101.005 11.9561C99.7218 12.3477 98.4703 12.8354 97.2606 13.4149C94.9692 14.4914 92.8511 15.9036 90.9763 17.6049C89.2882 19.1603 87.8487 20.9655 86.7081 22.9576C85.7191 24.6934 84.9594 26.5503 84.4481 28.4816C83.7572 31.2853 83.4712 34.1735 83.5987 37.0582C83.6094 38.0772 83.7099 38.8692 83.7498 39.4069C83.7749 39.6576 83.7952 39.8596 83.8105 40.0128C83.8236 40.0817 83.8307 40.1516 83.8315 40.2218C83.8155 40.1533 83.8085 40.0831 83.8105 40.0128C83.7952 39.8596 83.7749 39.6576 83.7498 39.4069C83.696 38.8705 83.5676 38.0814 83.5144 37.0596C83.3298 34.1552 83.5804 31.2396 84.2579 28.4093C84.7578 26.451 85.5152 24.5677 86.5103 22.8086C87.6546 20.7876 89.1063 18.9569 90.8133 17.3821C92.6819 15.6675 94.7928 14.2374 97.078 13.1378C98.3031 12.5497 99.5702 12.0534 100.869 11.6531C102.211 11.2148 103.6 10.9362 105.007 10.8231C105.313 10.7923 105.627 10.7609 105.954 10.7281C111.4 10.2563 116.865 11.4018 121.663 14.021C123.731 15.189 125.595 16.687 127.18 18.4556C128.563 19.9884 129.733 21.7001 130.659 23.5448L130.989 24.166L131.262 24.7859C131.444 25.1968 131.618 25.6014 131.784 25.9928C132.075 26.7868 132.354 27.5396 132.588 28.2549C132.821 28.9702 132.971 29.6234 133.148 30.267C133.325 30.9105 133.402 31.4656 133.51 31.9824C133.747 33.007 133.808 33.8309 133.898 34.3707C133.924 34.6354 133.944 34.8374 133.96 34.9976C133.964 35.0563 133.963 35.1153 133.957 35.1738Z" fill="#263238"/>
<path d="M87.5443 28.9098C85.0042 34.3776 85.16 40.8413 87.0269 46.5495C93.3653 46.6174 99.4484 42.8767 103.014 37.6016C106.579 32.3265 107.6 24.4784 106.915 18.1381C96.1109 19.2076 90.0635 23.4442 87.5443 28.9098Z" fill="#455A64"/>
<path d="M112.199 18.1429C118.193 25.0905 117.612 39.219 117.612 39.219L122.488 38.73C123.385 26.6311 118.54 18.6607 118.54 18.6607L112.199 18.1429Z" fill="#455A64"/>
<path d="M124.023 35.2414C124.406 35.203 124.938 40.222 124.059 43.5251L127.221 43.208C127.66 43.164 128.348 38.1704 127.506 34.8921L124.023 35.2414Z" fill="#455A64"/>
<path d="M142.74 28.2569C141.373 28.5778 139.981 28.7786 138.579 28.8571C137.189 29.0583 135.785 29.1379 134.382 29.0951C135.749 28.7785 137.141 28.5778 138.542 28.4949C139.932 28.2976 141.336 28.218 142.74 28.2569Z" fill="#263238"/>
<path d="M140.823 33.5566C140.856 33.8845 140.791 34.2147 140.636 34.5056C140.481 34.7965 140.243 35.0349 139.953 35.1907C139.663 35.3466 139.333 35.4128 139.005 35.3811C138.677 35.3494 138.366 35.2211 138.111 35.0126C137.855 34.804 137.668 34.5244 137.572 34.2093C137.476 33.8941 137.475 33.5575 137.57 33.2421C137.665 32.9266 137.852 32.6464 138.106 32.4369C138.36 32.2274 138.671 32.098 138.999 32.0652C139.439 32.0211 139.878 32.1534 140.22 32.4331C140.562 32.7128 140.779 33.117 140.823 33.5566Z" fill="#263238"/>
<path d="M141.412 39.4351C141.445 39.763 141.38 40.0932 141.225 40.3841C141.071 40.675 140.833 40.9134 140.543 41.0692C140.252 41.2251 139.922 41.2913 139.594 41.2596C139.266 41.2279 138.955 41.0996 138.7 40.8911C138.445 40.6825 138.257 40.4029 138.161 40.0878C138.065 39.7727 138.064 39.4361 138.16 39.1206C138.255 38.8051 138.441 38.5249 138.696 38.3154C138.95 38.1059 139.261 37.9765 139.588 37.9437C139.806 37.9209 140.027 37.9415 140.236 38.0042C140.446 38.067 140.642 38.1707 140.811 38.3094C140.981 38.448 141.121 38.6189 141.224 38.8121C141.328 39.0053 141.391 39.2171 141.412 39.4351Z" fill="#263238"/>
<path d="M77.4492 27.9313L77.1497 27.9613C74.8302 28.1939 73.1384 30.2629 73.371 32.5824L74.907 47.8986C75.1396 50.2182 77.2086 51.91 79.5281 51.6774L79.8276 51.6473C82.1472 51.4147 83.839 49.3458 83.6064 47.0262L82.0704 31.71C81.8377 29.3905 79.7688 27.6987 77.4492 27.9313Z" fill="#E0E0E0"/>
<path d="M82.06 34.3422C80.693 34.6625 79.3008 34.8633 77.8991 34.9424C76.5096 35.1438 75.1052 35.2235 73.7019 35.1804C75.0695 34.8636 76.4614 34.6628 77.8628 34.5802C79.2527 34.3835 80.6567 34.3039 82.06 34.3422Z" fill="#263238"/>
<path d="M80.1363 39.6426C80.1692 39.9708 80.104 40.3013 79.9488 40.5924C79.7937 40.8834 79.5557 41.1219 79.265 41.2775C78.9742 41.4332 78.6438 41.4991 78.3156 41.4668C77.9874 41.4346 77.6761 41.3056 77.4213 41.0963C77.1664 40.887 76.9794 40.6068 76.8839 40.2911C76.7885 39.9754 76.7888 39.6385 76.885 39.323C76.9812 39.0076 77.1688 38.7277 77.4241 38.519C77.6795 38.3103 77.991 38.182 78.3193 38.1505C78.7579 38.1083 79.1954 38.2417 79.5359 38.5213C79.8764 38.801 80.0923 39.2042 80.1363 39.6426Z" fill="#263238"/>
<path d="M80.7258 45.5211C80.7587 45.8493 80.6935 46.1798 80.5384 46.4709C80.3833 46.7619 80.1453 47.0004 79.8545 47.1561C79.5638 47.3117 79.2334 47.3776 78.9052 47.3454C78.5769 47.3131 78.2657 47.1841 78.0108 46.9748C77.7559 46.7655 77.5689 46.4853 77.4735 46.1696C77.378 45.8539 77.3784 45.517 77.4745 45.2015C77.5707 44.8861 77.7583 44.6062 78.0137 44.3975C78.269 44.1888 78.5806 44.0605 78.9089 44.029C79.1262 44.0072 79.3457 44.0285 79.5548 44.0918C79.7639 44.155 79.9585 44.259 80.1273 44.3976C80.2961 44.5363 80.4359 44.7069 80.5386 44.8997C80.6413 45.0925 80.7049 45.3037 80.7258 45.5211Z" fill="#263238"/>
<path d="M132.667 58.5753C132.566 58.686 132.453 58.7847 132.33 58.8694C132.096 59.0547 131.757 59.3278 131.307 59.6755C130.41 60.3424 129.081 61.2636 127.348 62.2956C125.337 63.5063 123.223 64.5375 121.03 65.3774C118.339 66.4081 115.52 67.0672 112.651 67.3363C107.431 67.7745 102.177 67.1703 97.1925 65.559C95.6903 65.0739 94.2217 64.4902 92.7962 63.812C92.2807 63.5823 91.9073 63.3664 91.6468 63.2237C91.5079 63.1648 91.3772 63.088 91.258 62.9954C91.4015 63.0373 91.5412 63.0916 91.6753 63.1575C91.947 63.271 92.3322 63.4645 92.8533 63.6796C94.2962 64.3001 95.7714 64.8426 97.2725 65.3047C102.236 66.8328 107.446 67.3945 112.62 66.9595C115.477 66.6968 118.285 66.0484 120.968 65.032C123.148 64.2145 125.255 63.2148 127.267 62.0435C128.997 61.0539 130.343 60.1662 131.236 59.5349L132.296 58.8095C132.412 58.7197 132.536 58.6413 132.667 58.5753Z" fill="#263238"/>
<path d="M136.954 64.287C136.851 64.431 136.735 64.5651 136.607 64.6876C136.372 64.9364 136.022 65.3021 135.554 65.7641C134.248 67.0772 132.861 68.3066 131.4 69.445C129.21 71.1279 126.762 72.4449 124.151 73.3448C120.955 74.4405 117.638 75.1417 114.272 75.433C112.535 75.6058 110.788 75.6705 109.043 75.6267C107.416 75.5768 105.795 75.4054 104.194 75.1141C101.485 74.6299 98.8321 73.8705 96.2772 72.8477C94.5581 72.1651 92.8818 71.3794 91.2574 70.4949C90.6708 70.1879 90.2403 69.8934 89.9442 69.7472C89.7858 69.6692 89.6369 69.5732 89.5004 69.461C89.6659 69.5242 89.8264 69.5998 89.9804 69.6873C90.2841 69.8397 90.7237 70.0841 91.3221 70.3688C92.9665 71.2024 94.6524 71.9514 96.3733 72.613C98.9231 73.5903 101.562 74.3176 104.252 74.7846C105.841 75.0577 107.446 75.221 109.057 75.2736C110.786 75.3109 112.515 75.2432 114.236 75.0708C117.569 74.7846 120.857 74.1006 124.028 73.0335C126.619 72.16 129.053 70.878 131.238 69.2361C132.71 68.1229 134.119 66.9294 135.46 65.661L136.56 64.6361C136.682 64.5099 136.814 64.3932 136.954 64.287Z" fill="#263238"/>
<g opacity="0.3">
<path d="M91.984 63.6401C94.6796 66.3319 97.9428 68.3871 101.535 69.6552C105.127 70.9234 108.957 71.3725 112.745 70.9696C116.533 70.5668 120.183 69.3223 123.429 67.3271C126.674 65.3318 129.432 62.6364 131.501 59.438C126.019 63.6406 119.495 66.2691 112.631 67.0405C105.766 67.812 98.8214 66.6972 92.5434 63.8162" fill="black"/>
</g>
<path d="M204.845 156.976C203.435 156.715 202.047 156.343 200.695 155.866C199.708 155.564 198.723 155.283 197.726 155.024C197.211 156.897 196.569 159.192 198.452 159.939C201.009 160.956 202.647 161.298 205.841 159.057C206.798 158.381 207.664 157.585 208.418 156.688C207.266 157.064 206.042 157.163 204.845 156.976Z" fill="#455A64"/>
<path d="M194.91 154.363C192.955 153.954 190.989 153.638 189.01 153.414C189.216 154.414 189.367 155.144 189.436 155.412C189.815 156.879 190.82 159.037 192.772 158.933C194.724 158.828 195.314 157.207 194.91 154.363Z" fill="#455A64"/>
<path d="M90.5218 151.339L80.3639 110.52L84.0202 74.2317L89.0907 73.7232L135.58 64.7555L151.365 69.2297L154.203 105.732L158.141 137.431L125.908 152.806L90.5218 151.339Z" fill="#E0E0E0"/>
<path d="M88.1906 141.984C88.1906 141.984 88.1857 141.935 88.1328 141.828C88.0798 141.72 88.0484 141.548 87.9947 141.363C87.8727 140.918 87.7068 140.316 87.5039 139.555C87.0757 137.952 86.483 135.69 85.746 132.9C84.2929 127.249 82.2903 119.486 80.0868 110.913C78.9537 106.63 77.8409 102.549 77.02 98.7827C76.2844 95.4529 75.7766 92.0768 75.5002 88.678C75.3031 86.3879 75.2745 84.0864 75.4146 81.7921C75.4457 80.98 75.5466 80.3719 75.5861 79.9247L75.6431 79.4406C75.6473 79.3844 75.6583 79.329 75.6758 79.2755C75.6891 79.3302 75.6947 79.3864 75.6926 79.4427C75.7058 79.575 75.6794 79.7324 75.6711 79.9302C75.6573 80.3537 75.5795 80.9806 75.5699 81.7977C75.4842 84.0863 75.5518 86.3781 75.7725 88.6577C76.0992 92.0396 76.6427 95.3972 77.3996 98.7095C78.2122 102.462 79.3236 106.53 80.4852 110.817C82.697 119.403 84.639 127.193 86.049 132.835C86.7303 135.63 87.2617 137.912 87.6898 139.515C87.8656 140.286 88.0106 140.89 88.1187 141.337C88.1383 141.532 88.1543 141.692 88.2164 141.819C88.2192 141.875 88.2105 141.931 88.1906 141.984Z" fill="#263238"/>
<g opacity="0.3">
<path d="M148.362 133.431C147.547 135.783 145.953 137.786 143.845 139.111C141.737 140.435 139.24 141 136.767 140.714C133.549 140.333 130.684 138.559 127.936 136.83L130.203 134.042L140.43 134.655L145.898 131.518L148.362 133.431Z" fill="black"/>
</g>
<path d="M158.821 140.838C158.77 140.866 158.715 140.886 158.658 140.897L158.165 141.038L156.275 141.551C154.638 141.989 152.25 142.595 149.296 143.299C143.381 144.715 135.173 146.488 126.033 148.087C116.892 149.686 108.567 150.781 102.521 151.451C99.5015 151.789 97.0533 151.999 95.3608 152.169L93.4175 152.364L92.9091 152.415C92.8523 152.43 92.7935 152.436 92.7349 152.432C92.7915 152.416 92.8504 152.411 92.9091 152.415L93.4175 152.364L95.3608 152.169C97.0533 151.999 99.4931 151.705 102.509 151.333C108.535 150.602 116.855 149.458 125.982 147.867C135.109 146.276 143.328 144.538 149.249 143.184C152.214 142.514 154.605 141.943 156.254 141.553L158.159 141.109L158.661 141.002C158.701 140.935 158.756 140.879 158.821 140.838Z" fill="#263238"/>
<path d="M155.02 112.199C131.858 113.931 104.114 117.389 83.1528 120.3L84.6805 125.923L155.581 116.885L155.02 112.199Z" fill="#011126"/>
<path d="M138.124 111.312C138.588 111.232 139.032 111.064 139.432 110.815C139.819 110.557 140.139 110.212 140.369 109.808C140.598 109.404 140.73 108.952 140.754 108.488C140.738 108.074 140.696 107.663 140.63 107.255C140.276 103.723 139.73 98.6354 139.079 92.355C138.922 90.7809 138.756 89.1302 138.584 87.4168C138.512 86.7797 138.227 86.1855 137.776 85.7303C137.324 85.2752 136.732 84.9857 136.095 84.9086C135.646 84.8797 135.195 84.9013 134.751 84.9731L122.911 86.1605L95.8304 88.8763C95.2646 88.931 94.7289 89.1566 94.2944 89.5231C93.8599 89.8897 93.5472 90.3798 93.398 90.9283C93.2736 91.4866 93.2645 92.0644 93.3713 92.6264L94.2473 101.361C94.4743 103.624 94.6971 105.846 94.9157 108.026L95.2398 111.258C95.2929 111.787 95.3481 112.338 95.3984 112.839C95.5298 113.575 95.9462 114.228 96.5572 114.659C97.1681 115.089 97.9241 115.26 98.6609 115.136L107.395 114.26L117.689 113.228L132.607 111.788L136.661 111.381L132.611 111.823L117.704 113.374L107.41 114.406L98.7173 115.278C98.1787 115.362 97.6275 115.307 97.116 115.118C96.6046 114.93 96.1499 114.613 95.7951 114.199C95.4341 113.773 95.1931 113.258 95.0967 112.707C95.0416 112.157 94.9906 111.649 94.9361 111.105L94.612 107.874C94.3931 105.691 94.1703 103.469 93.9435 101.208C93.7167 98.9468 93.4858 96.6437 93.2506 94.2988L93.0886 92.6829C92.978 92.0753 92.992 91.4516 93.1298 90.8496C93.3014 90.2326 93.6549 89.6816 94.1444 89.2686C94.6338 88.8555 95.2364 88.5996 95.8735 88.5343L122.954 85.8185L134.794 84.6311C135.258 84.5585 135.728 84.5396 136.196 84.575C136.894 84.664 137.542 84.9851 138.037 85.4866C138.531 85.9881 138.842 86.6411 138.921 87.3408C139.094 89.0612 139.259 90.7119 139.417 92.286C140.046 98.5545 140.516 103.664 140.856 107.197C140.911 107.614 140.936 108.035 140.933 108.455C140.911 108.83 140.819 109.197 140.662 109.538C140.421 110.071 140.028 110.522 139.532 110.833C139.231 111.025 138.896 111.159 138.545 111.228C138.408 111.271 138.267 111.299 138.124 111.312Z" fill="#263238"/>
<path d="M93.4163 88.9355C93.2407 84.0285 87.4401 81.5359 83.9429 79.2836C81.9121 77.9747 80.1663 76.7006 79.0366 74.6259C78.3118 73.2916 77.6009 71.5338 78.0776 69.9734C78.2856 69.379 78.6223 68.8378 79.0637 68.3886C79.5051 67.9393 80.0403 67.5931 80.631 67.3747C81.9174 66.9124 83.3019 66.793 84.6485 67.028C86.1833 67.1572 87.688 67.5286 89.1065 68.1287C91.163 69.0621 92.6164 65.8772 90.567 64.9431C89.1138 64.3168 87.5825 63.8906 86.0148 63.676C84.456 63.3861 82.8608 63.3489 81.2902 63.5659C77.5445 64.237 74.5022 67.1521 74.4741 71.0805C74.4541 74.389 76.4374 77.7499 78.8744 79.8834C80.8872 81.6443 83.347 82.9524 85.5407 84.3434C86.7265 85.0456 87.8295 85.879 88.8291 86.8277C88.6172 86.6098 89.0039 87.0283 88.9963 87.022L89.3182 87.4259C89.4004 87.5443 89.7398 88.1223 89.6088 87.8681C89.7296 88.104 89.8274 88.351 89.9008 88.6056C89.7962 88.2644 89.9008 88.6056 89.9092 88.6892C89.9385 88.8761 89.9574 89.0644 89.9658 89.2534C90.0507 91.5031 93.5325 91.1469 93.4483 88.9041L93.4163 88.9355Z" fill="#263238"/>
<path d="M87.1297 87.4906L95.8151 86.6196L96.5202 94.5618L88.3153 95.3847L87.1297 87.4906Z" fill="#455A64"/>
<path d="M113.06 137.997C115.597 136.642 116.554 133.486 115.199 130.949C113.843 128.413 110.688 127.455 108.151 128.81C105.614 130.166 104.656 133.321 106.012 135.858C107.367 138.395 110.523 139.353 113.06 137.997Z" fill="#263238"/>
<path d="M130.347 136.268C132.884 134.912 133.841 131.757 132.486 129.22C131.13 126.683 127.975 125.725 125.438 127.081C122.901 128.436 121.943 131.592 123.299 134.129C124.654 136.666 127.81 137.623 130.347 136.268Z" fill="#263238"/>
<path d="M148.895 134.315C151.368 132.846 152.182 129.651 150.713 127.178C149.244 124.705 146.049 123.89 143.576 125.359C141.103 126.828 140.289 130.023 141.757 132.496C143.226 134.969 146.422 135.784 148.895 134.315Z" fill="#263238"/>
<path d="M125.375 133.815C131.87 141.057 143.459 141.077 148.921 132.474C151.288 128.719 145.937 124.331 143.556 128.088C140.75 132.513 134.803 133.967 131.01 129.74C128.055 126.441 122.404 130.49 125.39 133.821L125.375 133.815Z" fill="#E0E0E0"/>
<path d="M125.375 133.815C125.332 133.781 125.294 133.74 125.264 133.693L124.958 133.309C124.816 133.084 124.696 132.846 124.599 132.599C124.493 132.249 124.456 131.883 124.491 131.519C124.554 131.019 124.73 130.541 125.006 130.119C125.281 129.698 125.65 129.345 126.083 129.087C126.605 128.737 127.201 128.511 127.825 128.427C128.531 128.336 129.249 128.444 129.896 128.74C130.559 129.126 131.155 129.618 131.66 130.195C131.954 130.456 132.263 130.7 132.585 130.926C132.928 131.152 133.29 131.351 133.665 131.521C135.302 132.226 137.147 132.28 138.822 131.672C140.679 131.01 142.262 129.75 143.324 128.09C143.473 127.885 143.654 127.663 143.816 127.45C144.019 127.253 144.236 127.071 144.465 126.906C144.952 126.607 145.52 126.464 146.091 126.497C146.656 126.563 147.201 126.747 147.69 127.037C148.179 127.327 148.602 127.716 148.931 128.18C149.26 128.644 149.488 129.171 149.6 129.729C149.712 130.286 149.706 130.861 149.582 131.416C149.205 132.428 148.645 133.362 147.93 134.171C146.63 135.725 145.012 136.984 143.186 137.861C141.532 138.655 139.735 139.108 137.902 139.193C136.316 139.289 134.725 139.128 133.19 138.716C130.963 138.142 128.897 137.067 127.148 135.572C126.666 135.185 126.217 134.76 125.804 134.3L125.48 133.946C125.44 133.909 125.405 133.868 125.376 133.822C125.376 133.822 125.421 133.853 125.505 133.922L125.862 134.252C126.293 134.693 126.755 135.102 127.244 135.478C129.002 136.911 131.056 137.935 133.258 138.477C134.768 138.868 136.331 139.013 137.888 138.906C139.672 138.801 141.417 138.341 143.021 137.554C144.797 136.69 146.369 135.458 147.633 133.94C148.211 133.108 148.967 132.308 149.206 131.32C149.315 130.817 149.319 130.297 149.216 129.793C149.114 129.289 148.907 128.812 148.61 128.392C148.314 127.972 147.933 127.618 147.492 127.353C147.051 127.088 146.56 126.918 146.05 126.853C145.568 126.83 145.091 126.948 144.677 127.194C144.479 127.341 144.293 127.503 144.12 127.679C143.965 127.885 143.807 128.063 143.659 128.274C142.552 129.998 140.9 131.303 138.966 131.981C137.214 132.618 135.285 132.559 133.575 131.818C133.19 131.647 132.818 131.449 132.46 131.227C132.138 130.956 131.792 130.738 131.51 130.45C131.025 129.89 130.457 129.409 129.826 129.021C129.223 128.742 128.555 128.634 127.895 128.709C127.303 128.783 126.734 128.989 126.232 129.311C125.818 129.549 125.463 129.876 125.192 130.268C124.921 130.66 124.741 131.108 124.665 131.579C124.634 131.926 124.669 132.276 124.769 132.61C124.853 132.855 124.959 133.091 125.086 133.317L125.351 133.712C125.349 133.762 125.381 133.808 125.375 133.815Z" fill="#263238"/>
<path d="M103.109 106.944C103.134 107.198 103.084 107.454 102.964 107.679C102.844 107.904 102.66 108.088 102.435 108.208C102.21 108.329 101.954 108.38 101.7 108.354C101.447 108.329 101.206 108.23 101.009 108.068C100.812 107.906 100.668 107.689 100.594 107.445C100.52 107.2 100.521 106.94 100.595 106.696C100.67 106.452 100.815 106.236 101.013 106.075C101.211 105.913 101.452 105.815 101.706 105.79C102.044 105.758 102.382 105.862 102.645 106.078C102.908 106.294 103.075 106.606 103.109 106.944Z" fill="#263238"/>
<path d="M107.497 106.504C107.522 106.758 107.472 107.013 107.352 107.238C107.232 107.463 107.049 107.647 106.824 107.767C106.6 107.888 106.345 107.939 106.091 107.915C105.838 107.89 105.597 107.791 105.4 107.63C105.203 107.469 105.058 107.252 104.983 107.009C104.909 106.765 104.908 106.505 104.982 106.261C105.055 106.017 105.2 105.8 105.396 105.638C105.593 105.477 105.833 105.377 106.087 105.351C106.426 105.319 106.765 105.422 107.029 105.638C107.293 105.854 107.461 106.165 107.497 106.504Z" fill="#263238"/>
<path d="M111.717 106.081C111.743 106.334 111.693 106.59 111.573 106.815C111.453 107.039 111.27 107.224 111.045 107.344C110.821 107.465 110.565 107.516 110.312 107.491C110.058 107.467 109.818 107.368 109.621 107.206C109.423 107.045 109.278 106.829 109.204 106.585C109.13 106.342 109.129 106.082 109.203 105.838C109.276 105.594 109.42 105.377 109.617 105.215C109.814 105.053 110.054 104.953 110.307 104.928C110.647 104.896 110.985 104.999 111.249 105.215C111.513 105.43 111.682 105.742 111.717 106.081Z" fill="#263238"/>
<path d="M115.966 105.655C115.992 105.908 115.941 106.164 115.822 106.388C115.702 106.613 115.518 106.798 115.294 106.918C115.069 107.039 114.814 107.09 114.561 107.065C114.307 107.041 114.066 106.942 113.869 106.78C113.672 106.619 113.527 106.403 113.453 106.159C113.378 105.916 113.378 105.656 113.451 105.412C113.525 105.168 113.669 104.951 113.866 104.789C114.062 104.627 114.303 104.527 114.556 104.502C114.896 104.47 115.234 104.573 115.498 104.788C115.762 105.004 115.93 105.316 115.966 105.655Z" fill="#263238"/>
<path d="M113.263 97.7089L101.617 98.8768C101.415 98.897 101.211 98.8773 101.016 98.8187C100.822 98.76 100.641 98.6637 100.484 98.5351C100.326 98.4065 100.196 98.2482 100.1 98.0692C100.004 97.8902 99.9438 97.694 99.9236 97.4919C99.8826 97.0836 100.006 96.6758 100.265 96.3582C100.525 96.0406 100.9 95.8392 101.308 95.7982L112.954 94.6303C113.362 94.5894 113.77 94.7123 114.088 94.972C114.405 95.2317 114.607 95.607 114.648 96.0152C114.668 96.2174 114.648 96.4215 114.59 96.616C114.531 96.8106 114.435 96.9916 114.306 97.1489C114.177 97.3062 114.019 97.4366 113.84 97.5326C113.661 97.6287 113.465 97.6886 113.263 97.7089Z" fill="white"/>
<path d="M102.869 102.03C102.894 102.283 102.844 102.538 102.724 102.763C102.605 102.988 102.421 103.172 102.197 103.293C101.972 103.413 101.717 103.465 101.463 103.44C101.21 103.416 100.969 103.316 100.772 103.155C100.575 102.994 100.43 102.778 100.356 102.534C100.281 102.291 100.281 102.03 100.354 101.786C100.428 101.543 100.572 101.326 100.769 101.164C100.965 101.002 101.205 100.902 101.459 100.877C101.799 100.842 102.138 100.945 102.403 101.161C102.667 101.377 102.835 101.69 102.869 102.03Z" fill="#011126"/>
<path d="M107.229 101.592C107.255 101.846 107.204 102.101 107.085 102.326C106.965 102.551 106.781 102.735 106.557 102.856C106.332 102.976 106.077 103.027 105.824 103.003C105.57 102.978 105.329 102.879 105.132 102.718C104.935 102.557 104.79 102.341 104.716 102.097C104.641 101.853 104.641 101.593 104.714 101.349C104.788 101.105 104.932 100.889 105.129 100.727C105.325 100.565 105.566 100.465 105.819 100.439C106.159 100.405 106.498 100.508 106.763 100.724C107.027 100.94 107.195 101.252 107.229 101.592Z" fill="white"/>
<path d="M111.464 101.168C111.489 101.421 111.439 101.676 111.319 101.901C111.2 102.126 111.016 102.311 110.792 102.431C110.567 102.551 110.312 102.603 110.058 102.578C109.805 102.554 109.564 102.455 109.367 102.293C109.17 102.132 109.025 101.916 108.95 101.672C108.876 101.429 108.876 101.168 108.949 100.924C109.023 100.681 109.167 100.464 109.363 100.302C109.56 100.14 109.8 100.04 110.054 100.015C110.394 99.9805 110.733 100.083 110.998 100.299C111.262 100.515 111.43 100.828 111.464 101.168Z" fill="#011126"/>
<path d="M115.699 100.743C115.724 100.996 115.674 101.252 115.554 101.477C115.434 101.701 115.251 101.886 115.026 102.006C114.802 102.127 114.547 102.178 114.293 102.154C114.04 102.129 113.799 102.03 113.602 101.869C113.405 101.707 113.26 101.491 113.185 101.248C113.111 101.004 113.11 100.744 113.184 100.5C113.257 100.256 113.402 100.039 113.598 99.8773C113.795 99.7153 114.035 99.6153 114.289 99.5899C114.628 99.5558 114.968 99.6582 115.232 99.8744C115.497 100.091 115.665 100.403 115.699 100.743Z" fill="white"/>
<path d="M131.5 91.7644L124.409 92.4755C123.771 92.5395 123.305 93.1091 123.369 93.7477L124.08 100.838C124.144 101.477 124.714 101.942 125.352 101.878L132.443 101.167C133.081 101.103 133.547 100.534 133.483 99.8951L132.772 92.8047C132.708 92.1661 132.138 91.7004 131.5 91.7644Z" fill="#455A64"/>
<path d="M133.509 105.556L125.151 106.394C124.803 106.429 124.457 106.324 124.186 106.103C123.916 105.882 123.745 105.563 123.71 105.216C123.675 104.869 123.78 104.522 124.001 104.251C124.222 103.981 124.541 103.81 124.888 103.775L133.246 102.937C133.594 102.902 133.942 103.006 134.213 103.227C134.484 103.448 134.657 103.767 134.694 104.114C134.727 104.462 134.621 104.809 134.399 105.08C134.177 105.35 133.857 105.521 133.509 105.556Z" fill="#263238"/>
<path opacity="0.3" d="M97.8711 115.328C97.8711 115.328 98.175 116.113 100.78 116.274C103.385 116.435 135.048 113.189 136.887 112.653C137.956 112.361 138.908 111.747 139.616 110.895L97.8711 115.328Z" fill="black"/>
<path d="M198.682 122.179C196.616 118.419 185.02 102.824 181.51 98.2656C178 93.7071 168.24 85.2025 168.24 85.2025L158.695 74.9036C156.581 72.6258 154.118 70.6998 151.397 69.1983L147.426 89.1542L151.241 105.382L161.992 109.819L169.258 119.129L183.579 137.138C184.362 137.562 185.188 137.899 186.044 138.143L200.182 127.319C200.182 127.319 200.66 125.773 198.682 122.179Z" fill="#E0E0E0"/>
<path d="M172.542 94.9158C172.539 95.1566 172.506 95.3962 172.445 95.629C172.398 95.9141 172.332 96.1957 172.248 96.4719C172.151 96.841 172.034 97.2049 171.9 97.562C171.559 98.498 171.144 99.4054 170.659 100.275C170.061 101.338 169.392 102.359 168.658 103.332C167.313 105.084 165.797 106.697 164.132 108.148C163.485 108.712 162.958 109.131 162.571 109.416C162.385 109.576 162.178 109.71 161.957 109.815C161.952 109.767 162.73 109.112 163.959 107.961C165.57 106.468 167.054 104.844 168.396 103.105C169.121 102.141 169.788 101.134 170.395 100.091C170.883 99.2401 171.313 98.3578 171.684 97.45C172.287 95.9543 172.507 94.9192 172.542 94.9158Z" fill="#263238"/>
<path d="M157.893 92.1637C157.949 92.1581 157.692 92.9648 157.4 94.2604C157.108 95.556 156.788 97.3469 156.454 99.3502C156.195 101.062 155.846 102.76 155.409 104.436C155.228 105.08 155.054 105.597 154.92 105.941C154.786 106.285 154.693 106.478 154.67 106.466C154.648 106.454 154.864 105.665 155.164 104.376C155.464 103.087 155.776 101.283 156.103 99.2869C156.366 97.5724 156.717 95.8724 157.154 94.1936C157.289 93.6831 157.452 93.1806 157.643 92.6883C157.702 92.5027 157.786 92.3262 157.893 92.1637Z" fill="#263238"/>
<path d="M152.407 72.6075C152.422 72.662 152.428 72.7184 152.424 72.7747C152.437 72.907 152.453 73.0672 152.431 73.2664C152.436 73.7303 152.443 74.3628 152.446 75.1645C152.449 75.9662 152.51 77.0012 152.55 78.1651C152.589 79.329 152.688 80.6628 152.772 82.1317C153.142 88.004 153.834 96.0954 154.719 105.054C155.603 114.012 156.484 122.092 157.134 127.95C157.426 130.854 157.718 133.21 157.903 134.908C157.982 135.702 158.046 136.336 158.092 136.796C158.111 136.991 158.128 137.158 158.141 137.29C158.157 137.344 158.163 137.401 158.158 137.457C158.144 137.403 158.138 137.346 158.141 137.29C158.128 137.158 158.112 136.998 158.092 136.796C158.046 136.336 157.934 135.714 157.827 134.923C157.61 133.256 157.31 130.894 156.94 127.977C156.227 122.132 155.313 114.07 154.42 105.091C153.526 96.1122 152.885 88.0299 152.576 82.1443C152.513 80.6733 152.457 79.3422 152.41 78.1721C152.363 77.0019 152.382 76.001 152.368 75.1652C152.355 74.3294 152.417 73.7533 152.424 73.2671C152.405 73.0721 152.444 72.9063 152.452 72.7719C152.427 72.7204 152.412 72.6646 152.407 72.6075Z" fill="#263238"/>
<path d="M191.42 125.947C190.995 126.137 183.934 129.941 183.568 137.167C184.458 137.654 185.403 138.031 186.382 138.292L200.182 127.319C200.275 126.468 200.165 125.606 199.86 124.805C199.86 124.805 198.653 122.801 191.42 125.947Z" fill="#011126"/>
<path d="M186.2 139.07C186.2 139.07 189.057 153.944 189.436 155.412C189.815 156.879 190.82 159.037 192.772 158.933C194.976 158.817 195.419 156.845 194.744 153.416C194.07 149.987 193.828 147.789 194.527 148.162C195.226 148.535 198.144 151.471 198.083 153.243C198.021 155.015 195.887 158.923 198.452 159.939C201.016 160.955 202.647 161.298 205.841 159.057C207.688 157.807 209.173 156.093 210.148 154.088C210.148 154.088 212.351 147.992 211.63 145.715C211.354 144.856 204.596 134.151 204.596 134.151L200 127.886C200 127.886 197.925 124.668 191.528 128.996C184.769 133.565 185.844 137.277 186.2 139.07Z" fill="#263238"/>
<path d="M157.821 108.141C162.126 101.048 165.887 93.6391 169.071 85.9775L171.513 88.1667C168.661 95.6146 164.84 102.654 160.148 109.103L157.821 108.141Z" fill="#011126"/>
<path d="M195.69 117.597C195.69 117.597 195.432 117.623 194.998 117.716C194.35 117.846 193.715 118.03 193.097 118.265C191.024 119.09 189.02 120.079 187.105 121.223L186.972 121.3L186.876 121.19L185.941 120.144L185.204 119.317L185.101 119.201L185.201 119.078C186.061 118.092 187.121 117.3 188.31 116.754C189.247 116.308 190.224 115.948 191.227 115.681C191.896 115.496 192.574 115.349 193.258 115.238C193.505 115.18 193.757 115.155 194.01 115.163C193.774 115.248 193.531 115.312 193.284 115.355C192.81 115.473 192.131 115.64 191.298 115.899C190.318 116.196 189.366 116.576 188.451 117.036C187.316 117.576 186.306 118.346 185.483 119.296L185.46 119.059L186.197 119.886C186.514 120.248 186.831 120.596 187.132 120.932L186.903 120.898C188.838 119.745 190.881 118.784 193.003 118.028C193.637 117.803 194.294 117.65 194.963 117.572C195.144 117.549 195.328 117.544 195.51 117.559C195.624 117.576 195.688 117.583 195.69 117.597Z" fill="#263238"/>
<path d="M199.213 123.196C198.061 123.159 196.909 123.188 195.76 123.281C194.528 123.426 193.319 123.729 192.164 124.184C190.754 124.756 189.432 125.523 188.235 126.463C186.059 128.182 184.348 130.419 183.26 132.97C182.837 134.04 182.477 135.133 182.181 136.244C182.184 135.932 182.224 135.621 182.299 135.318C182.469 134.481 182.712 133.661 183.024 132.867C183.832 130.828 185.051 128.978 186.605 127.43C188.158 125.882 190.014 124.671 192.056 123.871C194.045 123.111 196.185 122.826 198.304 123.04C198.612 123.055 198.917 123.107 199.213 123.196Z" fill="#263238"/>
<path d="M202.268 145.802C202.428 145.943 202.565 146.107 202.676 146.289C203.007 146.758 203.304 147.25 203.562 147.762C203.953 148.524 204.249 149.33 204.443 150.164C204.681 151.199 204.703 152.273 204.506 153.317C204.274 154.346 203.887 155.334 203.358 156.246C202.938 156.984 202.477 157.698 201.975 158.383C201.639 158.847 201.28 159.294 200.899 159.722C200.634 160.023 200.467 160.18 200.451 160.16C200.435 160.141 200.966 159.405 201.763 158.235C202.161 157.639 202.615 156.911 203.06 156.086C203.572 155.199 203.95 154.241 204.182 153.244C204.47 151.412 204.186 149.537 203.369 147.873C202.739 146.571 202.237 145.841 202.268 145.802Z" fill="#455A64"/>
<path d="M208.491 145.91C208.609 146.046 208.703 146.2 208.769 146.368C208.991 146.8 209.171 147.253 209.306 147.721C209.522 148.409 209.664 149.119 209.729 149.838C209.81 150.721 209.793 151.61 209.678 152.488C209.55 153.364 209.329 154.223 209.021 155.052C208.76 155.725 208.434 156.37 208.046 156.979C207.791 157.393 207.495 157.781 207.163 158.137C206.928 158.385 206.793 158.518 206.77 158.5C206.748 158.481 207.223 157.891 207.822 156.846C208.173 156.237 208.469 155.597 208.707 154.936C208.987 154.122 209.19 153.285 209.314 152.434C209.424 151.582 209.451 150.722 209.394 149.865C209.344 149.164 209.232 148.469 209.059 147.788C208.759 146.622 208.431 145.944 208.491 145.91Z" fill="#455A64"/>
<path d="M202.384 142.885C202.462 142.828 202.776 143.226 202.752 143.819C202.727 144.413 202.369 144.772 202.299 144.709C202.229 144.646 202.369 144.28 202.384 143.8C202.399 143.32 202.29 142.937 202.384 142.885Z" fill="#455A64"/>
<path d="M208.141 143.124C208.211 143.054 208.53 143.289 208.664 143.775C208.797 144.261 208.647 144.593 208.554 144.574C208.461 144.555 208.421 144.236 208.317 143.894C208.212 143.553 208.063 143.188 208.141 143.124Z" fill="#455A64"/>
<path d="M111.424 271.161L125.091 296.046L121.88 316.361C121.801 318.433 122.528 320.454 123.909 322C125.289 323.546 127.215 324.497 129.282 324.652C129.633 324.695 129.987 324.693 130.337 324.645C131.366 324.45 133.922 322.372 134.397 321.494C139.745 311.685 147.278 298.836 145.591 294.778C144.655 292.458 136.139 264.574 136.139 264.574L111.424 271.161Z" fill="#E0E0E0"/>
<path d="M131.935 283.195C132.035 283.303 132.122 283.422 132.195 283.549C132.354 283.794 132.572 284.152 132.851 284.616C133.643 285.913 134.368 287.249 135.025 288.619C136.024 290.658 136.674 292.849 136.949 295.103C137.088 296.443 137.022 297.797 136.754 299.118C136.446 300.529 136.039 301.917 135.538 303.271C134.492 306.028 134.023 308.784 133.098 311.212C132.353 313.471 130.856 315.407 128.857 316.696C127.417 317.542 125.711 317.814 124.079 317.456C123.649 317.355 123.237 317.19 122.855 316.967C122.722 316.897 122.599 316.807 122.491 316.701C123.013 316.954 123.561 317.149 124.125 317.283C125.696 317.56 127.314 317.256 128.675 316.426C130.568 315.148 131.978 313.273 132.679 311.099C133.553 308.732 134.025 305.934 135.076 303.156C135.572 301.819 135.977 300.45 136.291 299.059C136.554 297.78 136.627 296.469 136.505 295.168C136.25 292.954 135.644 290.794 134.71 288.77C133.936 287.019 133.18 285.646 132.683 284.689C132.398 284.21 132.148 283.711 131.935 283.195Z" fill="#263238"/>
<path d="M133.747 295.86C133.71 295.99 131.762 295.644 129.331 295.677C126.9 295.709 124.939 296.075 124.912 295.944C124.885 295.813 126.825 295.238 129.328 295.22C131.83 295.201 133.788 295.785 133.747 295.86Z" fill="#263238"/>
<path d="M131.335 302.117C131.277 302.242 129.678 301.664 127.605 301.407C125.533 301.151 123.816 301.288 123.802 301.156C123.789 301.023 125.528 300.68 127.673 300.957C129.818 301.235 131.367 302.015 131.335 302.117Z" fill="#263238"/>
<path d="M131.055 308.723C130.975 308.836 129.506 308.013 127.513 307.432C125.52 306.851 123.797 306.714 123.812 306.579C123.826 306.444 125.595 306.4 127.666 306.994C129.738 307.588 131.129 308.624 131.055 308.723Z" fill="#263238"/>
<path d="M123.443 321.214C123.912 321.41 124.398 321.562 124.895 321.666C126.277 321.881 127.691 321.661 128.941 321.035C130.718 320.069 132.213 318.655 133.278 316.935C134.547 315.063 135.845 312.928 137.109 310.655C139.24 306.772 141.067 302.729 142.572 298.563C143.117 296.974 143.568 295.649 143.866 294.768C143.988 294.29 144.151 293.825 144.353 293.375C144.286 293.861 144.184 294.342 144.046 294.813C143.807 295.723 143.44 297.047 142.898 298.657C141.493 302.883 139.712 306.975 137.575 310.883C136.299 313.178 134.993 315.307 133.684 317.19C132.56 318.958 130.984 320.393 129.12 321.348C127.801 321.978 126.312 322.159 124.88 321.864C124.503 321.782 124.139 321.648 123.799 321.466C123.572 321.306 123.444 321.227 123.443 321.214Z" fill="#263238"/>
<path d="M143.192 296.038C142.9 295.364 142.672 294.664 142.51 293.947C142.127 292.649 141.569 290.868 140.84 288.936C140.112 287.005 139.362 285.286 138.803 284.054C138.455 283.407 138.166 282.729 137.939 282.031C138.406 282.609 138.8 283.243 139.113 283.918C140.778 287.062 142.034 290.407 142.848 293.871C143.057 294.575 143.173 295.304 143.192 296.038Z" fill="#263238"/>
<path d="M191.767 249.997L188.594 278.132L199.406 295.937C200.285 297.81 200.387 299.953 199.689 301.901C198.992 303.848 197.553 305.44 195.685 306.329C195.376 306.497 195.046 306.622 194.703 306.701C193.666 306.89 190.482 305.865 189.7 305.219C180.947 297.986 168.968 288.74 168.988 284.313C168.997 281.807 166.187 252.732 166.187 252.732L191.767 249.997Z" fill="#E0E0E0"/>
<path d="M177.262 268.604C177.262 268.604 177.277 268.75 177.256 269.033C177.235 269.317 177.183 269.779 177.141 270.269C177.044 271.341 176.869 272.892 176.821 274.804C176.723 277.038 176.988 279.273 177.605 281.422C177.995 282.683 178.568 283.879 179.305 284.973C180.132 286.159 181.035 287.291 182.008 288.361C184.059 290.575 185.577 293.012 187.308 294.913C188.797 296.701 190.834 297.948 193.102 298.462C194.678 298.75 196.305 298.451 197.676 297.623C198.154 297.305 198.589 296.925 198.969 296.495C198.969 296.495 198.913 296.634 198.74 296.876C198.465 297.218 198.142 297.518 197.782 297.768C196.385 298.694 194.689 299.055 193.036 298.778C190.664 298.286 188.526 297.015 186.961 295.166C185.163 293.236 183.663 290.833 181.627 288.631C180.643 287.547 179.732 286.4 178.898 285.197C178.143 284.065 177.562 282.826 177.172 281.522C176.567 279.327 176.338 277.045 176.495 274.773C176.574 273.252 176.732 271.735 176.968 270.23C177.055 269.694 177.119 269.279 177.175 268.999C177.187 268.864 177.216 268.731 177.262 268.604Z" fill="#263238"/>
<path d="M180.446 281.06C180.367 280.977 181.975 279.753 184.322 278.884C186.669 278.016 188.714 277.853 188.718 277.965C188.723 278.077 186.769 278.449 184.498 279.303C182.227 280.157 180.528 281.179 180.446 281.06Z" fill="#263238"/>
<path d="M185.103 286.038C185.004 285.964 186.169 284.672 188.069 283.63C189.97 282.588 191.742 282.305 191.761 282.423C191.78 282.541 190.141 283.029 188.313 284.021C186.484 285.013 185.204 286.134 185.103 286.038Z" fill="#263238"/>
<path d="M187.905 292.089C187.794 292.037 188.705 290.602 190.434 289.253C192.163 287.905 193.833 287.372 193.875 287.501C193.916 287.631 192.377 288.355 190.746 289.623C189.114 290.891 188.018 292.169 187.905 292.089Z" fill="#263238"/>
<path d="M199.791 301.034C199.791 301.034 199.725 301.154 199.57 301.359C199.322 301.66 199.033 301.926 198.713 302.148C197.49 302.932 196.045 303.297 194.596 303.187C192.486 302.965 190.469 302.198 188.745 300.96C186.645 299.569 184.616 298.073 182.667 296.476C179.163 293.615 175.919 290.449 172.974 287.015C171.845 285.722 170.995 284.611 170.419 283.846C170.109 283.458 169.833 283.046 169.592 282.613C169.95 282.962 170.282 283.338 170.584 283.738C171.206 284.47 172.094 285.535 173.249 286.812C176.256 290.163 179.516 293.28 182.999 296.134C185.052 297.806 187.083 299.326 188.985 300.62C190.64 301.836 192.577 302.61 194.614 302.869C196.009 303.004 197.413 302.701 198.628 302.002C199.041 301.712 199.43 301.388 199.791 301.034Z" fill="#263238"/>
<path d="M171.7 284.625C171.435 283.934 171.263 283.21 171.189 282.474C170.611 278.964 170.49 275.393 170.827 271.852C170.856 271.11 170.979 270.374 171.191 269.663C171.252 270.397 171.244 271.135 171.166 271.867C171.119 273.223 171.074 275.091 171.141 277.16C171.208 279.229 171.373 281.084 171.515 282.434C171.644 283.157 171.706 283.89 171.7 284.625Z" fill="#263238"/>
<path d="M168.565 158.166C168.565 158.166 173.836 157.138 175.996 159.243C178.156 161.348 186.751 172.2 185.773 173.395C184.795 174.591 182.918 177.403 182.918 177.403L168.565 158.166Z" fill="#455A64"/>
<path d="M136.339 252.327C136.35 251.883 130.312 235.864 130.312 235.864L127.9 215.887L127.669 202.635C127.669 202.635 131.081 200.745 127.82 197.132L128.674 190.145L89.366 150.547C89.366 150.547 88.7369 162.303 89.1962 175.792C89.3085 178.947 87.1985 195.226 89.2791 205.38C91.3597 215.535 98.1289 233.787 98.6689 237.068C99.2089 240.348 107.05 259.893 110.68 266.41C114.973 274.14 122.1 290.147 122.1 290.147L143.643 282.725C143.643 282.725 136.327 252.771 136.339 252.327Z" fill="#E0E0E0"/>
<path d="M169.796 159.084C170.742 159.397 190.669 184.829 193.345 191.863C196.02 198.897 195.59 217.203 195.321 220.621C195.052 224.039 190.468 267.146 190.257 268.335C190.046 269.524 177.136 275.905 167.239 271.009L164.448 255.108C164.448 255.108 161.118 237.889 160.946 232.947L160.784 228.038L159.235 211.049L154.329 201.411C153.052 200.399 152.459 199.255 152.577 197.97L149.459 191.86L140.214 186.519C140.214 186.519 138.225 178.747 144.472 167.526C150.72 156.305 164.117 150.782 164.117 150.782L169.796 159.084Z" fill="#E0E0E0"/>
<path d="M93.9945 222.305C94.3461 222.007 94.7381 221.759 95.1589 221.57C96.285 221 97.4523 220.516 98.6509 220.122C102.645 218.854 106.784 218.099 110.969 217.873C112.195 217.821 113.382 217.73 114.545 217.754C115.658 217.761 116.771 217.826 117.878 217.947C119.737 218.161 121.579 218.503 123.39 218.97C124.607 219.277 125.807 219.647 126.984 220.08C127.422 220.21 127.841 220.392 128.235 220.623C127.787 220.526 127.346 220.398 126.916 220.242C126.067 219.989 124.843 219.634 123.302 219.282C121.495 218.866 119.665 218.559 117.821 218.361C115.55 218.168 113.267 218.162 110.995 218.342C106.852 218.563 102.748 219.26 98.7652 220.42C97.568 220.78 96.3945 221.215 95.2516 221.722C94.4368 222.085 94.0112 222.332 93.9945 222.305Z" fill="#263238"/>
<path d="M95.3546 226.397C100.825 223.86 106.739 222.419 112.763 222.154C118.155 221.974 123.549 222.451 128.826 223.575L129.144 226.181C129.144 226.181 118.211 225.055 113.47 225.277C107.575 225.559 96.2204 229.068 96.2204 229.068L95.3546 226.397Z" fill="#011126"/>
<path d="M152.397 198.002C152.576 197.534 152.794 197.081 153.049 196.65C153.315 196.133 153.613 195.633 153.94 195.153C154.342 194.48 154.779 193.827 155.25 193.2C155.807 192.421 156.404 191.671 157.037 190.952C157.695 190.148 158.492 189.399 159.313 188.536C161.169 186.774 163.18 185.183 165.323 183.783C167.516 182.401 169.826 181.216 172.228 180.241C173.354 179.826 174.416 179.402 175.45 179.123C176.484 178.843 177.442 178.571 178.329 178.37C179.217 178.168 180.035 178.051 180.741 177.931C181.349 177.819 181.964 177.744 182.582 177.704C183.104 177.635 183.631 177.608 184.157 177.624C183.647 177.744 183.129 177.829 182.607 177.878C182.098 177.928 181.489 178.025 180.787 178.18C180.085 178.334 179.272 178.437 178.41 178.685C177.549 178.933 176.577 179.136 175.571 179.484C174.564 179.831 173.532 180.202 172.4 180.625C170.038 181.609 167.763 182.791 165.599 184.156C163.479 185.539 161.482 187.102 159.631 188.828C158.812 189.649 158.008 190.398 157.347 191.167C156.685 191.937 156.09 192.665 155.533 193.361C154.977 194.057 154.563 194.697 154.169 195.257C153.775 195.817 153.46 196.327 153.215 196.76C152.976 197.195 152.703 197.611 152.397 198.002Z" fill="#263238"/>
<path d="M154.619 201.571C154.798 201.103 155.016 200.65 155.271 200.219C155.537 199.702 155.835 199.202 156.163 198.722C156.567 198.048 157.006 197.396 157.479 196.768C158.035 195.988 158.631 195.238 159.266 194.521C159.892 193.754 160.714 192.968 161.535 192.105C163.39 190.339 165.405 188.748 167.552 187.351C169.742 185.969 172.05 184.784 174.45 183.81C175.575 183.388 176.638 182.972 177.672 182.692C178.707 182.412 179.664 182.133 180.552 181.939C181.44 181.744 182.257 181.613 182.969 181.492C183.576 181.386 184.189 181.313 184.804 181.273C185.329 181.205 185.858 181.177 186.386 181.192C185.873 181.312 185.353 181.397 184.829 181.447C184.327 181.497 183.711 181.594 183.009 181.749C182.307 181.904 181.501 182.005 180.632 182.254C179.764 182.503 178.799 182.706 177.793 183.053C176.787 183.4 175.754 183.764 174.622 184.194C172.26 185.167 169.984 186.337 167.818 187.69C165.707 189.076 163.72 190.64 161.878 192.366C161.06 193.187 160.255 193.936 159.594 194.706C158.932 195.476 158.341 196.239 157.781 196.9C157.221 197.561 156.81 198.235 156.416 198.795C156.075 199.28 155.759 199.781 155.469 200.297C155.22 200.744 154.936 201.17 154.619 201.571Z" fill="#263238"/>
<path d="M160.289 142.154L133.228 141.477L89.3869 150.545L91.6305 167.936L90.7308 168.997L129.027 190.996L132.41 187.548L140.234 186.51L164.783 152.024L160.289 142.154Z" fill="#E0E0E0"/>
<path d="M166.274 154.477C165.746 154.694 165.205 154.88 164.655 155.034C163.19 155.525 161.756 156.105 160.363 156.773C155.83 158.92 151.82 162.03 148.613 165.887C144.587 170.809 142.156 176.842 141.645 183.181C141.629 183.717 141.579 184.25 141.496 184.779C141.464 184.645 141.45 184.506 141.455 184.368C141.428 184.097 141.427 183.668 141.455 183.179C141.501 181.713 141.67 180.254 141.96 178.816C142.929 173.967 145.07 169.428 148.197 165.598C151.454 161.678 155.564 158.554 160.212 156.464C161.633 155.817 163.1 155.275 164.601 154.842C165.127 154.684 165.555 154.599 165.836 154.528C165.979 154.492 166.126 154.474 166.274 154.477Z" fill="#263238"/>
<path d="M130.901 189.057C130.786 188.969 130.683 188.866 130.596 188.75L129.799 187.817C129.469 187.406 129.046 186.907 128.52 186.362C127.994 185.817 127.436 185.162 126.724 184.516C126.012 183.87 125.283 183.127 124.403 182.413C123.522 181.699 122.581 180.949 121.569 180.179C119.3 178.566 116.905 177.138 114.408 175.909C111.864 174.701 109.23 173.695 106.529 172.9C105.272 172.569 104.076 172.224 102.923 172.017C101.769 171.809 100.713 171.591 99.7286 171.45C98.7436 171.31 97.8486 171.224 97.0663 171.141C96.2841 171.057 95.5973 171.013 95.0401 170.999L93.7592 170.923C93.4611 170.897 93.305 170.885 93.3099 170.863C93.4563 170.831 93.6059 170.816 93.7557 170.818L95.0491 170.808C95.7296 170.791 96.4104 170.812 97.0886 170.871C97.8833 170.939 98.7937 170.967 99.78 171.122C100.766 171.276 101.861 171.384 103.011 171.635C104.162 171.885 105.378 172.157 106.656 172.486C109.395 173.263 112.063 174.269 114.633 175.492C117.154 176.732 119.564 178.185 121.837 179.835C122.858 180.619 123.838 181.344 124.676 182.118C125.513 182.893 126.294 183.595 126.968 184.28C127.641 184.966 128.214 185.619 128.724 186.215C129.16 186.693 129.568 187.197 129.944 187.725C130.237 188.117 130.474 188.445 130.67 188.714C130.764 188.816 130.842 188.931 130.901 189.057Z" fill="#263238"/>
<path d="M88.675 197.182C89.1075 196.867 89.5639 196.586 90.04 196.341C90.5794 196.018 91.1375 195.727 91.7114 195.47C92.3834 195.157 93.1251 194.766 94.0075 194.445L95.3614 193.915C95.8357 193.734 96.349 193.591 96.8734 193.419C97.9209 193.061 99.0701 192.805 100.3 192.513C105.582 191.358 111.04 191.27 116.356 192.253C117.563 192.505 118.718 192.72 119.764 193.051C120.286 193.21 120.805 193.327 121.286 193.496L122.651 193.986C123.434 194.263 124.203 194.581 124.955 194.936C125.532 195.178 126.093 195.455 126.635 195.767C127.108 196.003 127.565 196.27 128.003 196.565C127.495 196.394 127.003 196.18 126.532 195.925C125.978 195.644 125.41 195.391 124.83 195.167C124.15 194.905 123.404 194.55 122.519 194.287L121.15 193.827C120.677 193.67 120.16 193.56 119.639 193.415C118.601 193.104 117.479 192.928 116.257 192.664C113.635 192.231 110.981 192.026 108.323 192.053C105.657 192.117 103 192.412 100.384 192.933C99.1956 193.214 98.0443 193.449 97.0094 193.792C96.4912 193.957 95.9765 194.086 95.5008 194.253L94.1441 194.755C93.2666 195.054 92.5159 195.425 91.8389 195.69C91.259 195.93 90.692 196.201 90.1403 196.5C89.669 196.763 89.1793 196.99 88.675 197.182Z" fill="#263238"/>
<path d="M88.9353 203.846C89.3587 203.554 89.8028 203.293 90.264 203.066L91.005 202.668L91.9208 202.259C92.5957 201.974 93.32 201.619 94.1843 201.329L95.5431 200.848C96.0202 200.694 96.5202 200.56 97.0328 200.41C98.0559 200.089 99.1884 199.877 100.364 199.605C102.942 199.138 105.553 198.876 108.172 198.822C110.788 198.787 113.402 198.948 115.994 199.303C117.182 199.501 118.317 199.668 119.348 199.917C120.379 200.165 121.351 200.384 122.234 200.633C123.117 200.882 123.878 201.172 124.552 201.372C125.133 201.557 125.704 201.772 126.263 202.016C126.751 202.191 127.224 202.404 127.678 202.655C127.181 202.532 126.695 202.372 126.223 202.175C125.748 202.005 125.172 201.802 124.484 201.604C123.796 201.405 123.031 201.144 122.159 200.943C121.288 200.742 120.339 200.472 119.279 200.282C118.219 200.093 117.13 199.9 115.944 199.716C113.375 199.389 110.786 199.24 108.196 199.269C105.606 199.339 103.024 199.598 100.471 200.044C99.3007 200.295 98.1807 200.492 97.1632 200.798C96.6569 200.94 96.1554 201.061 95.6846 201.206L94.3223 201.653C93.4559 201.922 92.7149 202.25 92.0449 202.514L91.1249 202.881L90.3665 203.245C89.9059 203.483 89.4273 203.684 88.9353 203.846Z" fill="#263238"/>
<path d="M92.1475 213.218C92.8375 212.512 93.5841 211.863 94.3801 211.278C95.7972 210.116 97.7783 208.545 99.9837 206.826L104.426 203.418L104.359 203.594C104.173 202.304 104.038 201.234 103.956 200.49C103.882 200.098 103.859 199.698 103.886 199.301C104.035 199.67 104.135 200.057 104.185 200.453C104.336 201.19 104.534 202.254 104.761 203.532L104.771 203.637L104.68 203.709L100.286 207.175C98.0807 208.895 96.0591 210.413 94.5877 211.524C93.82 212.152 93.0041 212.719 92.1475 213.218Z" fill="#263238"/>
<path d="M104.918 254.767C105.123 254.415 105.367 254.087 105.643 253.787C105.941 253.412 106.26 253.054 106.598 252.714C106.994 252.315 107.424 251.829 107.969 251.373C108.54 250.842 109.141 250.342 109.767 249.877C110.418 249.348 111.192 248.862 111.984 248.339C113.76 247.248 115.634 246.325 117.582 245.583C119.553 244.868 121.587 244.336 123.656 243.996C124.624 243.899 125.529 243.731 126.393 243.721C127.258 243.712 128.053 243.646 128.786 243.657C129.519 243.668 130.199 243.72 130.752 243.763C131.246 243.789 131.738 243.846 132.225 243.932C132.644 243.977 133.057 244.06 133.46 244.181C133.469 244.271 131.672 243.959 128.783 243.981C128.08 243.988 127.266 244.007 126.424 244.098C125.582 244.19 124.676 244.274 123.735 244.438C121.701 244.796 119.702 245.331 117.761 246.036C115.843 246.76 113.993 247.652 112.231 248.701C111.438 249.21 110.676 249.673 110.016 250.183C109.357 250.692 108.743 251.162 108.204 251.617C106.094 253.446 105.002 254.829 104.918 254.767Z" fill="#263238"/>
<path d="M107.214 259.349C107.424 259.022 107.664 258.715 107.931 258.433C108.177 258.148 108.48 257.801 108.864 257.425C109.249 257.049 109.661 256.599 110.187 256.167C111.382 255.1 112.658 254.127 114.004 253.258C115.672 252.192 117.427 251.268 119.249 250.495C121.097 249.737 123.003 249.13 124.949 248.678C126.547 248.324 128.169 248.089 129.803 247.973C130.499 247.904 131.126 247.911 131.68 247.898C132.15 247.88 132.621 247.889 133.09 247.925C133.491 247.924 133.89 247.962 134.283 248.038C134.292 248.128 132.566 248.027 129.82 248.288C128.215 248.452 126.623 248.719 125.053 249.09C121.227 249.985 117.577 251.509 114.249 253.599C112.911 254.443 111.632 255.378 110.421 256.396C108.366 258.136 107.291 259.412 107.214 259.349Z" fill="#263238"/>
<path d="M194.81 223.1C194.358 223.06 193.91 222.982 193.471 222.868C193.047 222.777 192.53 222.674 191.923 222.58C191.315 222.486 190.625 222.337 189.85 222.26C188.047 222.017 186.231 221.873 184.411 221.828C179.944 221.724 175.483 222.236 171.155 223.347C169.394 223.801 167.659 224.35 165.959 224.994C165.225 225.25 164.606 225.538 164.018 225.772C163.429 226.007 162.966 226.223 162.576 226.409C162.176 226.619 161.758 226.793 161.327 226.929C161.694 226.669 162.083 226.441 162.49 226.249C162.87 226.042 163.337 225.791 163.904 225.545C164.47 225.298 165.099 224.975 165.831 224.697C167.53 224.005 169.271 223.419 171.044 222.943C173.223 222.37 175.44 221.948 177.678 221.68C179.921 221.437 182.178 221.347 184.433 221.411C186.268 221.471 188.097 221.647 189.91 221.938C190.687 222.043 191.344 222.209 191.982 222.328C192.62 222.447 193.105 222.581 193.518 222.701C193.959 222.797 194.391 222.93 194.81 223.1Z" fill="#263238"/>
<path d="M194.346 227.803C193.893 227.805 193.441 227.763 192.997 227.678C192.141 227.56 190.861 227.428 189.347 227.341C187.833 227.253 185.946 227.168 183.893 227.184C181.666 227.241 179.443 227.417 177.234 227.711C175.03 228.023 172.845 228.453 170.687 229.001C168.707 229.523 166.947 230.08 165.488 230.613C164.029 231.146 162.87 231.579 162.104 231.944C161.701 232.147 161.279 232.31 160.844 232.429C161.22 232.184 161.615 231.97 162.026 231.79C163.123 231.242 164.248 230.749 165.395 230.313C167.096 229.646 168.833 229.072 170.597 228.595C172.77 228.014 174.975 227.558 177.2 227.229C179.428 226.932 181.671 226.768 183.919 226.738C185.749 226.72 187.58 226.8 189.402 226.976C190.958 227.13 192.208 227.314 193.055 227.489C193.494 227.557 193.925 227.662 194.346 227.803Z" fill="#263238"/>
<path d="M194.596 197.189C188.605 193.569 180.395 193.64 173.93 196.582C167.464 199.524 162.494 204.82 158.95 210.663L157.311 207.225C160.854 201.382 166.42 195.71 172.887 192.775C179.353 189.84 187.853 189.712 193.815 193.321C194.203 194.582 194.464 195.877 194.596 197.189Z" fill="#011126"/>
<g opacity="0.3">
<path d="M90.3665 203.105C90.9372 204.096 93.1237 204.502 94.5285 204.059C96.3079 203.494 98.6053 201.709 100.023 201.327C108.247 199.145 114.22 203.365 124.302 202.593C124.497 202.573 124.716 202.657 124.88 202.535C124.929 202.495 124.97 202.446 125 202.39C125.029 202.335 125.048 202.273 125.053 202.21C125.059 202.147 125.051 202.084 125.032 202.024C125.012 201.964 124.98 201.908 124.939 201.861C124.76 201.668 124.532 201.527 124.279 201.455C113.599 197.306 101.115 198.39 90.3651 203.091" fill="black"/>
</g>
<g opacity="0.3">
<path d="M155.254 201.234C159.975 197.172 162.687 191.174 168.136 187.982C172.786 185.243 178.879 184.977 183.114 181.675C171.269 183.306 160.398 190.587 154.904 200.558" fill="black"/>
</g>
<path d="M166.275 273.533C174.885 276.89 185.104 275.387 192.55 270.089C192.777 269.906 192.964 269.679 193.098 269.421C193.233 269.163 193.312 268.88 193.331 268.589C193.35 268.299 193.309 268.008 193.21 267.735C193.11 267.461 192.955 267.211 192.754 267.001C192.316 266.58 191.739 266.333 191.132 266.306C190.525 266.279 189.929 266.474 189.454 266.853C183.269 271.259 174.777 272.096 167.743 269.368C167.161 269.194 166.535 269.243 165.987 269.506C165.44 269.769 165.01 270.227 164.783 270.791C164.356 272.002 165.111 273.08 166.275 273.533Z" fill="#263238"/>
<path d="M122.679 292.552C129.754 289.816 136.951 287.38 144.269 285.244C144.85 285.128 145.364 284.79 145.7 284.302C146.036 283.814 146.168 283.214 146.068 282.629C145.906 282.051 145.527 281.557 145.01 281.251C144.493 280.945 143.878 280.85 143.293 280.987C135.602 283.236 128.026 285.799 120.567 288.676C120.304 288.796 120.068 288.968 119.873 289.181C119.678 289.393 119.527 289.643 119.431 289.916C119.334 290.188 119.293 290.477 119.31 290.765C119.327 291.053 119.402 291.335 119.53 291.594C119.848 292.11 120.345 292.49 120.925 292.661C121.506 292.833 122.13 292.784 122.676 292.524L122.679 292.552Z" fill="#263238"/>
<path d="M193.169 232.276C193.169 232.276 198.571 237.524 198.345 240.115C198.12 242.705 194.186 261.426 194.186 261.426L190.774 263.949L193.169 232.276Z" fill="#E0E0E0"/>
<path d="M190.713 263.618C190.58 263.631 191.277 256.055 192.285 246.751C193.294 237.448 194.207 229.928 194.34 229.914C194.472 229.901 193.768 237.471 192.767 246.781C191.766 256.09 190.833 263.627 190.713 263.618Z" fill="#263238"/>
<path d="M107.733 268.38C107.479 267.862 107.403 267.275 107.515 266.71C107.628 266.144 107.922 265.631 108.354 265.25C110.819 262.962 115.685 258.936 117.181 260.031C118.676 261.126 123.167 273.353 124.9 278.287C125.098 278.888 125.076 279.54 124.839 280.127C124.601 280.714 124.164 281.197 123.603 281.491L118.629 284.298C118.344 284.464 118.028 284.571 117.701 284.613C117.374 284.655 117.041 284.632 116.723 284.544C116.405 284.456 116.107 284.305 115.848 284.101C115.589 283.896 115.374 283.642 115.214 283.353L107.733 268.38Z" fill="#E0E0E0"/>
<path d="M107.733 268.38C107.861 268.551 107.972 268.736 108.062 268.93C108.287 269.344 108.573 269.885 108.929 270.56C109.681 272.025 110.738 274.072 112.023 276.581C112.672 277.86 113.382 279.259 114.137 280.752C114.522 281.502 114.909 282.279 115.313 283.075C115.484 283.479 115.771 283.822 116.139 284.061C116.506 284.3 116.937 284.424 117.375 284.416C117.843 284.412 118.301 284.274 118.693 284.017L120.024 283.257L122.793 281.685C123.271 281.471 123.717 281.189 124.116 280.849C124.462 280.498 124.694 280.05 124.782 279.565C124.863 279.073 124.797 278.569 124.594 278.114C124.417 277.611 124.232 277.102 124.055 276.592C122.591 272.518 121.146 268.631 119.7 265.16C119.067 263.509 118.265 261.927 117.306 260.441C116.874 259.78 115.867 260.121 115.193 260.413C114.498 260.742 113.831 261.127 113.198 261.563C111.965 262.39 110.925 263.24 110.015 263.993L108.779 265.06C108.425 265.334 108.125 265.672 107.894 266.056C107.603 266.584 107.501 267.194 107.603 267.788C107.685 268.187 107.79 268.388 107.77 268.397C107.647 268.216 107.558 268.016 107.506 267.804C107.355 267.188 107.432 266.538 107.724 265.974C107.95 265.565 108.253 265.203 108.616 264.907C108.982 264.561 109.388 264.196 109.835 263.807C110.84 262.915 111.896 262.081 112.996 261.309C113.646 260.846 114.335 260.44 115.056 260.096C115.454 259.9 115.879 259.765 116.317 259.696C116.555 259.666 116.797 259.688 117.027 259.758C117.256 259.85 117.456 260.002 117.606 260.199C118.606 261.707 119.444 263.316 120.106 265C121.587 268.475 123.039 272.353 124.504 276.441C124.682 276.958 124.866 277.46 125.044 277.97C125.259 278.497 125.317 279.075 125.211 279.635C125.105 280.2 124.828 280.719 124.417 281.121C124.214 281.334 123.981 281.516 123.726 281.662L123.037 282.09L120.267 283.648L118.935 284.401C118.469 284.696 117.929 284.855 117.377 284.859C116.859 284.864 116.351 284.715 115.918 284.432C115.484 284.149 115.143 283.744 114.938 283.268L113.773 280.908C113.031 279.402 112.344 278.003 111.713 276.711C110.481 274.182 109.478 272.109 108.753 270.627L107.974 268.967C107.876 268.779 107.795 268.582 107.733 268.38Z" fill="#263238"/>
<path d="M193.247 197.62C192.738 197.607 192.231 197.561 191.728 197.484C190.351 197.34 188.968 197.27 187.584 197.274C183.023 197.284 178.504 198.15 174.262 199.827C168.832 202.026 164.047 205.562 160.35 210.107C160.06 210.506 159.74 210.884 159.394 211.237C159.394 211.237 159.445 211.113 159.579 210.902C159.713 210.692 159.907 210.384 160.192 210.003C160.994 208.917 161.871 207.889 162.817 206.926C166.02 203.694 169.853 201.154 174.078 199.465C178.378 197.759 182.974 196.925 187.6 197.012C188.992 197.035 190.381 197.152 191.757 197.362C192.25 197.432 192.618 197.522 192.868 197.567C192.996 197.568 193.123 197.586 193.247 197.62Z" fill="#263238"/>
<path d="M194.819 202.429C194.331 202.457 193.84 202.447 193.353 202.401C192.886 202.37 192.306 202.344 191.638 202.34C190.969 202.337 190.226 202.292 189.378 202.328C187.411 202.351 185.446 202.475 183.492 202.7C178.712 203.248 174.022 204.401 169.534 206.133C167.718 206.841 165.938 207.639 164.202 208.525C163.45 208.882 162.806 209.27 162.198 209.584C161.589 209.899 161.125 210.184 160.728 210.435C160.325 210.702 159.902 210.938 159.462 211.139C159.826 210.834 160.215 210.559 160.625 210.319C161.007 210.055 161.482 209.74 162.06 209.408C162.639 209.076 163.266 208.661 164.009 208.284C165.739 207.347 167.523 206.513 169.351 205.785C173.86 203.985 178.596 202.819 183.426 202.32C185.398 202.11 187.38 202.017 189.363 202.041C190.206 202.027 190.972 202.091 191.637 202.122C192.301 202.154 192.883 202.201 193.353 202.26C193.846 202.274 194.336 202.331 194.819 202.429Z" fill="#263238"/>
<path d="M97.161 232.625C97.4922 232.342 97.8484 232.09 98.2251 231.871C98.65 231.576 99.0931 231.309 99.5518 231.07C100.078 230.778 100.662 230.424 101.355 230.108C102.957 229.321 104.617 228.656 106.319 228.119C110.524 226.795 114.929 226.222 119.333 226.427C121.12 226.512 122.898 226.729 124.653 227.075C125.37 227.207 126.093 227.395 126.649 227.543C127.141 227.662 127.625 227.808 128.1 227.982C128.522 228.099 128.933 228.253 129.328 228.442C129.295 228.53 127.531 227.919 124.559 227.394C122.815 227.093 121.052 226.91 119.284 226.847C114.938 226.693 110.598 227.259 106.437 228.522C104.747 229.043 103.095 229.679 101.492 230.425C98.7614 231.677 97.2203 232.725 97.161 232.625Z" fill="#263238"/>
<path d="M129.739 229.66C129.329 229.756 128.91 229.812 128.489 229.828L125.076 230.17C122.2 230.459 118.237 231.004 113.9 231.812C109.563 232.619 105.684 233.571 102.896 234.322L99.5962 235.23C99.1974 235.361 98.7883 235.459 98.3731 235.521C98.7457 235.326 99.1382 235.171 99.5439 235.059C100.304 234.786 101.415 234.428 102.803 234.029C110.059 231.888 117.515 230.497 125.054 229.877C126.496 229.732 127.667 229.692 128.48 229.667C128.899 229.627 129.32 229.625 129.739 229.66Z" fill="#263238"/>
<path d="M88.8279 144.41C88.8279 144.41 108.654 147.508 129.742 144.528C150.83 141.548 158.712 136.6 158.712 136.6L160.68 143.592C160.68 143.592 135.953 156.16 88.639 151.366C88.6516 151.35 87.7286 146.075 88.8279 144.41Z" fill="#011126"/>
<path d="M97.1419 145.166L97.3948 152.809L102.365 152.986L102.325 144.513L97.1419 145.166Z" fill="#E0E0E0"/>
<path d="M146.54 140.585L149.184 147.791L154.016 146.596L151.309 138.538L146.54 140.585Z" fill="#E0E0E0"/>
<path d="M116.31 152.931L109.629 152.884L109.794 145.762L116.476 145.809L116.31 152.931Z" fill="#263238"/>
<g opacity="0.3">
<path d="M111.392 134.965C104.971 139.4 95.9387 144.253 89.5556 148.72L89.3096 153.282C94.8428 150.793 101.598 147.576 106.228 143.657C107.524 142.556 110.03 140.462 110.907 138.967C111.784 137.472 112.097 136.519 111.392 134.965Z" fill="black"/>
</g>
<path d="M73.2984 130.561C68.5295 133.515 63.4224 137.939 64.7135 144.219C65.8852 149.94 71.8041 151.788 76.9898 151.725C90.1854 151.562 102.492 143.729 112.615 136.003C115.882 133.508 112.132 128.312 108.845 130.823C101.317 136.573 93.1624 141.963 83.8568 144.297C80.6725 145.094 75.2985 146.435 72.2193 144.493C67.758 141.676 75.3794 137.141 77.4958 135.796L76.7277 128.979C75.5443 129.414 74.3976 129.943 73.2984 130.561Z" fill="#E0E0E0"/>
<path d="M73.2984 130.561C73.5631 130.377 73.8405 130.213 74.1286 130.069C74.9661 129.639 75.8274 129.257 76.7082 128.924L76.7778 128.917L76.7855 128.994C76.9566 130.7 77.2638 132.991 77.5954 135.807L77.601 135.863L77.5453 135.868C76.0647 136.753 74.6547 137.75 73.328 138.852C72.5857 139.467 71.9463 140.196 71.434 141.012C71.1673 141.433 71.0145 141.916 70.9907 142.414C70.9993 142.922 71.2071 143.407 71.5692 143.763C72.3747 144.519 73.3944 145.006 74.4881 145.159C75.6544 145.348 76.8406 145.383 78.016 145.262C80.5454 144.948 83.0436 144.42 85.4837 143.683C90.9594 141.962 96.1582 139.46 100.919 136.254C103.475 134.591 106.014 132.753 108.557 130.824C108.718 130.694 108.89 130.578 109.071 130.477C109.241 130.351 109.431 130.253 109.633 130.188C110.028 130.023 110.457 129.951 110.885 129.978C111.316 130.018 111.736 130.143 112.118 130.346C112.501 130.549 112.84 130.827 113.114 131.162C113.689 131.809 114.021 132.636 114.052 133.502C114.064 133.94 113.984 134.375 113.816 134.78C113.648 135.185 113.396 135.55 113.078 135.851C109.229 138.915 105.176 141.712 100.945 144.222C98.8833 145.414 96.8295 146.541 94.743 147.482C93.7102 147.987 92.6537 148.395 91.6209 148.83C90.588 149.264 89.5343 149.63 88.4889 149.939C84.5379 151.237 80.4033 151.889 76.2445 151.87C74.3531 151.843 72.4791 151.503 70.6985 150.864C69.0343 150.293 67.5476 149.297 66.3848 147.976C65.3763 146.734 64.7381 145.233 64.5433 143.645C64.3397 142.238 64.463 140.802 64.9036 139.451C65.6759 137.32 66.9827 135.422 68.6989 133.942C69.7456 132.981 70.873 132.113 72.0686 131.345C72.4774 131.072 72.7964 130.885 73.0081 130.752L73.334 130.564C73.334 130.564 73.2365 130.644 73.0255 130.785C72.8145 130.926 72.5101 131.118 72.1097 131.405C70.9361 132.195 69.8272 133.078 68.7936 134.045C67.1274 135.528 65.864 137.41 65.121 139.513C64.7151 140.839 64.615 142.239 64.8282 143.609C65.0317 145.15 65.665 146.603 66.6557 147.802C67.7961 149.08 69.2471 150.042 70.8684 150.594C72.6224 151.213 74.4661 151.539 76.3259 151.559C80.4502 151.559 84.5476 150.897 88.4616 149.597C96.7558 146.929 105.029 141.737 112.895 135.567C113.178 135.303 113.402 134.982 113.552 134.625C113.702 134.267 113.774 133.883 113.763 133.496C113.735 132.711 113.431 131.962 112.904 131.38C112.406 130.792 111.697 130.424 110.93 130.354C110.552 130.33 110.173 130.392 109.822 130.535C109.643 130.596 109.474 130.684 109.321 130.796C109.152 130.893 108.991 131.004 108.84 131.126C106.29 133.056 103.746 134.901 101.175 136.559C96.3841 139.781 91.149 142.287 85.6349 143.999C83.1721 144.739 80.6494 145.262 78.0955 145.564C76.898 145.684 75.6898 145.644 74.5028 145.446C73.3551 145.278 72.2877 144.758 71.4481 143.958C71.0483 143.547 70.8198 142.999 70.8089 142.425C70.8388 141.885 71.0039 141.36 71.2891 140.9C71.8287 140.061 72.4967 139.313 73.2687 138.682C74.6119 137.583 76.039 136.591 77.5369 135.714L77.4965 135.803C77.2136 132.982 76.9483 130.687 76.7632 128.982L76.8385 129.031C75.6789 129.464 74.8097 129.846 74.2463 130.121C73.958 130.262 73.7511 130.375 73.5763 130.455C73.4903 130.506 73.3963 130.541 73.2984 130.561Z" fill="#263238"/>
</svg>
