<svg width="210" height="156" viewBox="0 0 210 156" fill="none" xmlns="http://www.w3.org/2000/svg">
<path d="M135.107 60.7415C139.434 55.0925 142.182 44.2355 140.851 37.3475C139.521 30.4595 136.903 23.792 136.222 16.8095C135.951 13.943 136.351 10.457 139.002 9.155C141.165 8.105 143.934 9.15501 145.492 10.9505C146.896 12.8819 147.75 15.1381 147.969 17.492C148.184 19.8394 148.757 22.143 149.668 24.3275C149.668 22.6055 151.831 21.4295 153.551 21.9125C154.387 22.2122 155.124 22.7257 155.683 23.3985C156.243 24.0712 156.605 24.8784 156.731 25.7345C157.078 27.425 157.705 28.5905 157.683 30.5855C157.389 36.903 156.045 43.1328 153.703 49.034C151.485 54.284 145.049 61.1615 138.655 62.9885" fill="#E0E0E0"/>
<path d="M153.984 48.1415C153.409 47.7556 152.86 47.3348 152.34 46.8815C149.677 44.9123 146.379 43.9294 143.037 44.1095C142.345 44.2014 141.647 44.2505 140.949 44.2565C141.584 43.9416 142.281 43.7592 142.993 43.721C144.711 43.5259 146.451 43.6789 148.105 44.1705C149.758 44.6622 151.289 45.4816 152.599 46.577C153.164 47.0029 153.635 47.5349 153.984 48.1415Z" fill="#263238"/>
<path d="M157.413 33.809C157.413 33.893 156.537 33.284 155.055 32.5805C153.123 31.6794 151.028 31.155 148.889 31.037C146.753 30.9294 144.616 31.2364 142.604 31.94C141.057 32.486 140.17 32.99 140.127 32.9375C140.083 32.885 140.3 32.7485 140.689 32.486C141.249 32.1334 141.839 31.8278 142.452 31.5725C144.505 30.7467 146.725 30.3876 148.943 30.5225C151.157 30.6369 153.315 31.2325 155.26 32.2655C155.844 32.5652 156.398 32.9167 156.915 33.3155C157.251 33.6095 157.445 33.7775 157.413 33.809Z" fill="#263238"/>
<path d="M148.283 19.4765C146.304 19.3094 144.31 19.3977 142.355 19.739C140.456 20.2609 138.636 21.0272 136.946 22.0175C136.946 22.0175 137.357 21.4715 138.277 20.8625C140.724 19.29 143.675 18.6299 146.585 19.004C147.178 19.0464 147.756 19.2073 148.283 19.4765Z" fill="#263238"/>
<path d="M58.9742 94.499C58.0872 95.0345 51.1857 102.542 41.1904 101.429C31.1951 100.316 25.8837 96.179 21.719 97.0925C17.5543 98.006 -0.673109 112.223 0.0192071 117.358C0.711523 122.492 3.06973 121.358 3.06973 121.358C3.06973 121.358 6.86667 124.603 9.91719 122.146C9.91719 122.146 10.4039 124.099 13.541 121.285C16.6781 118.471 15.618 114.88 16.6564 112.885C17.6949 110.89 25.6782 107.141 25.6782 107.141C25.6782 107.141 37.1555 117.83 49.3683 117.641C61.5812 117.452 66.2328 109.724 66.2328 109.724L58.9742 94.499Z" fill="#E0E0E0"/>
<path d="M136.99 98.9615C137.379 99.182 139.975 106.679 144.205 109.745C148.434 112.811 150.901 114.061 149.505 116.854C148.11 119.647 133.528 135.25 132.706 138.715C131.884 142.18 134.696 148.165 129.169 148.784C129.169 148.784 127.557 152.522 124.679 151.178C124.679 151.178 123.003 153.341 121.564 152.039C120.125 150.737 117.118 148.648 118.632 143.471C120.147 138.295 132.782 125.432 132.003 122.576C131.224 119.72 121.531 112.076 121.531 112.076L136.99 98.9615Z" fill="#E0E0E0"/>
<g opacity="0.3">
<path d="M121.531 112.055L125.523 115.394L140.105 104.957L137.833 100.62L121.531 112.055Z" fill="black"/>
</g>
<path d="M65.151 103.015L67.9852 120.865L66.4599 122.597C66.4599 122.597 52.7542 124.928 48.5895 128.141C44.4248 131.354 29.7997 145.476 35.706 151.136C35.706 151.136 42.1964 158.769 46.5234 153.53C46.5234 153.53 51.2506 154.79 51.6184 150.527C51.9163 148.199 51.4265 145.841 50.223 143.807L56.0103 136.404C56.0103 136.404 91.3941 134.557 93.1789 130.609C94.9638 126.661 94.8881 110.711 94.8881 110.711L96.7703 94.6145C96.7703 94.6145 89.9554 91.034 78.9432 92.5145C75.8685 92.8547 72.9513 94.0163 70.5163 95.8701C68.0813 97.7238 66.224 100.197 65.151 103.015Z" fill="#E0E0E0"/>
<path d="M128.79 88.031C129.352 88.367 139.607 99.9485 147.353 101.461C155.098 102.973 176.56 95.759 181.287 97.628C186.014 99.497 190.72 104.978 193.511 109.031C195.393 111.751 196.334 114.218 200.401 113.231C200.401 113.231 203.744 117.967 207.346 113.62C207.346 113.62 211.013 111.887 209.726 108.433C208.439 104.978 195.285 91.916 187.994 88.766C180.703 85.616 180.422 90.1415 175.694 88.535C170.967 86.9285 165.613 73.6145 159.263 70.4645C153.967 70.1464 148.656 70.7836 143.599 72.344C134.956 74.9165 128.79 88.031 128.79 88.031Z" fill="#E0E0E0"/>
<g opacity="0.3">
<path d="M49.5955 100.411C49.5955 100.411 51.4886 111.415 57.6112 116.161C57.6112 116.161 60.4021 115.426 64.5235 111.793L56.3131 96.7145C54.2503 98.2267 51.9918 99.4693 49.5955 100.411Z" fill="black"/>
</g>
<path d="M52.2242 82.8545C52.2242 83.768 51.1424 106.952 66.8926 113.976C80.8687 120.203 110.768 115.026 110.768 115.026C110.768 115.026 120.601 113.903 127.243 109.65C137.639 102.993 140.549 96.746 140.549 96.746L160.344 71.2835C160.344 71.2835 149.581 59.114 136.99 58.526C124.398 57.938 123.576 68.648 114.046 70.4015C104.516 72.155 95.2884 76.565 90.5828 70.727L85.888 64.8785L52.2242 82.8545Z" fill="#E0E0E0"/>
<path d="M61.5164 123.574C61.5164 123.574 72.2148 129.979 71.8362 135.176L76.4552 134.683C75.8016 132.078 74.5679 129.645 72.8411 127.553C71.1142 125.461 68.9361 123.763 66.4599 122.576L61.5164 123.574Z" fill="#E0E0E0"/>
<path d="M37.8802 100.915C40.3991 103.904 42.2419 107.374 43.2889 111.1C44.3707 115.741 44.3058 117.148 44.3058 117.148C45.9363 117.536 47.6157 117.695 49.2927 117.62C49.1921 111.83 47.2584 106.21 43.7541 101.524L37.8802 100.915Z" fill="#E0E0E0"/>
<path d="M100.07 73.4675C104.474 87.6584 103.39 102.922 97.0192 116.391L101.682 116.045C101.682 116.045 115.128 92.735 104.04 72.743L100.07 73.4675Z" fill="#E0E0E0"/>
<path d="M146.833 101.313C146.833 101.313 146.509 101.313 145.968 101.135C145.198 100.891 144.446 100.597 143.718 100.253C141.334 99.0853 139.145 97.5736 137.228 95.7695C135.324 93.9749 133.57 92.0368 131.981 89.9735C131.273 89.1591 130.643 88.284 130.099 87.359C130.887 88.0904 131.61 88.8842 132.262 89.732C133.927 91.7063 135.704 93.5887 137.585 95.3705C139.466 97.138 141.575 98.6625 143.859 99.9065C145.665 100.851 146.866 101.229 146.833 101.313Z" fill="#263238"/>
<path d="M139.932 97.838C139.745 98.2373 139.516 98.6172 139.25 98.9719C138.975 99.4039 138.675 99.821 138.353 100.221C137.974 100.694 137.563 101.271 137.044 101.807C135.864 103.15 134.58 104.403 133.203 105.555C131.502 106.96 129.694 108.237 127.795 109.377C125.892 110.504 123.907 111.494 121.856 112.338C120.181 113.017 118.461 113.585 116.707 114.039C115.971 114.26 115.279 114.386 114.673 114.512C114.067 114.638 113.591 114.722 113.126 114.774C112.685 114.86 112.235 114.902 111.785 114.9C111.785 114.795 113.667 114.522 116.599 113.672C118.321 113.171 120.012 112.571 121.661 111.876C123.67 111.015 125.618 110.026 127.492 108.915C129.355 107.788 131.136 106.539 132.825 105.177C134.196 104.054 135.49 102.844 136.698 101.555C138.807 99.3499 139.791 97.7645 139.932 97.838Z" fill="#263238"/>
<path d="M78.2725 93.281C78.2725 93.281 77.7858 93.2285 76.9312 93.281C75.7373 93.3841 74.5904 93.7816 73.5994 94.436C70.9708 96.0215 69.0128 99.959 68.0717 104.369C67.3515 108.205 67.1587 112.117 67.4984 116.003C67.6174 117.494 67.7688 118.702 67.8662 119.531C67.9543 119.96 67.9942 120.396 67.9852 120.833C67.8248 120.427 67.7123 120.004 67.6498 119.573C67.4876 118.743 67.2712 117.536 67.1089 116.034C66.6454 112.113 66.7839 108.146 67.52 104.264C67.9419 102.125 68.6702 100.054 69.6835 98.111C70.5108 96.4867 71.7692 95.1059 73.329 94.1105C74.3891 93.4493 75.6172 93.0859 76.8771 93.0605C77.2155 93.058 77.553 93.0933 77.8831 93.1655C78.1319 93.2285 78.2725 93.26 78.2725 93.281Z" fill="#263238"/>
<path d="M94.3581 121.305C94.3031 120.224 94.3284 119.139 94.4338 118.061C94.5204 116.066 94.6718 113.304 94.5204 110.27C94.4139 107.683 93.9779 105.119 93.2223 102.636C92.6165 100.736 92.0432 99.6335 92.1406 99.581C92.3388 99.8056 92.5027 100.057 92.6274 100.326C93.0097 101.03 93.3387 101.76 93.6117 102.51C94.021 103.626 94.3428 104.771 94.5745 105.933C94.8407 107.356 95.0141 108.794 95.0937 110.238C95.2029 112.855 95.1198 115.477 94.8449 118.082C94.7853 119.169 94.6223 120.248 94.3581 121.305Z" fill="#263238"/>
<path d="M64.6426 113.262C64.3144 113.128 64.0083 112.948 63.734 112.727C62.9473 112.189 62.2025 111.596 61.5056 110.952C60.4563 110.007 59.4869 108.982 58.6065 107.886C57.5462 106.529 56.6088 105.085 55.8048 103.571C55.0236 102.047 54.383 100.459 53.8901 98.825C53.5038 97.4865 53.2253 96.1209 53.0571 94.7405C52.9409 93.814 52.8939 92.8805 52.9165 91.9475C52.8917 91.5952 52.9209 91.2414 53.0031 90.8975C53.1112 90.8975 53.0896 92.357 53.4574 94.667C53.6741 96.0159 53.9849 97.3489 54.3877 98.657C54.9038 100.25 55.5476 101.802 56.3132 103.298C57.1001 104.783 58.0081 106.205 59.0284 107.55C59.8663 108.646 60.7845 109.681 61.776 110.648C63.4852 112.328 64.6967 113.178 64.6426 113.262Z" fill="#263238"/>
<path d="M151.182 63.5974C151.182 63.6604 150.1 62.7784 148.034 61.7704C145.433 60.4312 142.61 59.5429 139.694 59.1454C136.771 58.8308 133.812 59.0553 130.975 59.807C129.817 60.1789 128.679 60.6099 127.568 61.0984C127.568 61.0984 127.827 60.8465 128.379 60.5315C129.162 60.0792 129.992 59.7096 130.856 59.4289C133.733 58.5578 136.764 58.2754 139.759 58.5995C142.746 58.9998 145.623 59.9628 148.229 61.4344C149.018 61.8648 149.767 62.3601 150.468 62.9149C150.966 63.3139 151.215 63.5659 151.182 63.5974Z" fill="#263238"/>
<path d="M174.321 88.7659C174.768 90.1039 174.92 91.5186 174.765 92.9173C174.61 94.3161 174.153 95.6673 173.423 96.8824C173.261 96.8194 173.964 95.0974 174.202 92.8609C174.44 90.6244 174.158 88.7974 174.321 88.7659Z" fill="#263238"/>
<path d="M180.616 88.997C181.259 90.2782 181.535 91.7032 181.417 93.1235C181.48 94.5502 181.14 95.9665 180.432 97.2185C180.27 97.2185 180.811 95.381 180.854 93.113C180.898 90.845 180.454 89.039 180.616 88.997Z" fill="#263238"/>
<path d="M138.98 125.064C137.883 124.42 136.7 123.925 135.464 123.594C134.194 123.426 132.906 123.426 131.635 123.594C131.635 123.531 131.992 123.29 132.717 123.112C133.654 122.879 134.632 122.852 135.581 123.034C136.53 123.216 137.425 123.601 138.201 124.162C138.764 124.592 139.023 124.959 138.98 125.064Z" fill="#263238"/>
<path d="M148.445 112.569C147.84 113.252 147.145 113.856 146.379 114.365C142.828 117.016 138.876 119.12 134.664 120.602C133.811 120.952 132.917 121.199 132.003 121.337C132.815 120.926 133.657 120.575 134.523 120.287C136.561 119.45 138.554 118.514 140.494 117.483C142.435 116.448 144.32 115.316 146.141 114.092C146.866 113.525 147.636 113.016 148.445 112.569Z" fill="#263238"/>
<path d="M54.4417 138.2C53.4112 136.638 52.2804 135.141 51.0558 133.717C48.8924 131.428 46.8804 129.905 46.9885 129.769C48.712 130.665 50.2372 131.882 51.4777 133.349C52.878 134.693 53.8987 136.363 54.4417 138.2Z" fill="#263238"/>
<path d="M57.7627 136.226C57.3006 134.366 56.7409 132.529 56.086 130.724C54.8528 127.805 53.1329 125.789 53.2843 125.684C54.7705 127.015 55.9088 128.671 56.6052 130.514C57.4586 132.3 57.8556 134.259 57.7627 136.226Z" fill="#263238"/>
<path d="M21.3836 97.1765C22.7732 98.491 23.8415 100.091 24.5099 101.859C25.3371 103.568 25.7656 105.432 25.7647 107.319C25.5917 107.319 25.2022 104.873 23.9907 102.069C22.7791 99.266 21.243 97.2815 21.3836 97.1765Z" fill="#263238"/>
<path d="M28.5665 98.7305C29.2077 100.261 29.4778 101.914 29.3559 103.561C29.234 105.209 28.7233 106.807 27.8634 108.233C28.2725 106.681 28.5832 105.107 28.7937 103.519C28.8173 101.92 28.7414 100.321 28.5665 98.7305Z" fill="#263238"/>
<path d="M163.752 75.095C163.66 75.2429 163.551 75.3803 163.427 75.5045C163.094 75.8797 162.732 76.2306 162.346 76.5545C160.99 77.8149 159.453 78.8762 157.781 79.7045C155.292 80.9229 152.625 81.7622 149.873 82.193C146.513 82.7353 143.092 82.8307 139.705 82.4765C136.29 82.16 132.977 81.1703 129.969 79.568C127.522 78.2311 125.441 76.3444 123.901 74.066C122.843 72.5413 122.108 70.8283 121.737 69.026C121.645 68.5407 121.59 68.0493 121.575 67.556C121.549 67.3854 121.549 67.2121 121.575 67.0415C121.64 67.0415 121.651 67.745 121.943 68.984C122.352 70.7225 123.085 72.3737 124.106 73.856C125.665 76.031 127.719 77.8276 130.11 79.106C133.063 80.6453 136.303 81.5984 139.64 81.9095C142.975 82.2586 146.343 82.181 149.657 81.6785C152.365 81.2755 154.997 80.4865 157.467 79.337C159.781 78.257 161.903 76.825 163.752 75.095Z" fill="#263238"/>
<path d="M134.437 92.021C134.06 92.4489 133.652 92.849 133.214 93.218C132.734 93.685 132.229 94.1266 131.7 94.541C131.083 95.0345 130.402 95.591 129.536 96.179C128.671 96.767 127.849 97.3865 126.843 97.9955C125.837 98.6045 124.755 99.224 123.598 99.8645C121.058 101.18 118.413 102.297 115.69 103.203C112.954 104.078 110.15 104.742 107.306 105.188C105.987 105.356 104.743 105.534 103.553 105.597C102.363 105.66 101.281 105.723 100.308 105.734C99.3341 105.744 98.393 105.734 97.6033 105.671C96.9229 105.654 96.244 105.602 95.5696 105.514C94.9903 105.481 94.4149 105.4 93.8497 105.272C94.4255 105.224 95.0046 105.224 95.5804 105.272C96.1429 105.272 96.8136 105.345 97.6141 105.335C98.4146 105.324 99.3016 105.335 100.297 105.335C101.292 105.335 102.374 105.261 103.542 105.135C104.71 105.009 105.944 104.862 107.242 104.673C110.051 104.209 112.821 103.542 115.528 102.678C118.221 101.775 120.843 100.68 123.37 99.4025C124.517 98.783 125.62 98.2265 126.616 97.5965C127.611 96.9665 128.509 96.41 129.32 95.8535C130.131 95.297 130.845 94.8035 131.484 94.2995C132.122 93.7955 132.641 93.407 133.063 93.05C133.489 92.6682 133.948 92.3238 134.437 92.021Z" fill="#263238"/>
<path d="M57.1366 84.2461C81.941 82.402 100.62 62.7954 98.8566 40.4535C97.0936 18.1116 75.5566 1.49495 50.7522 3.33908C25.9479 5.18321 7.26916 24.7898 9.03216 47.1317C10.7952 69.4735 32.3323 86.0902 57.1366 84.2461Z" fill="#E0E0E0"/>
<path d="M97.7872 52.6145C97.7872 52.6145 97.7872 52.3835 97.8954 51.9425C98.0035 51.5015 98.1009 50.819 98.2631 49.9685C98.3497 49.538 98.4362 49.055 98.5444 48.5195C98.6526 47.984 98.6309 47.3855 98.685 46.745C98.7391 46.1045 98.7932 45.4115 98.8581 44.645C98.923 43.8785 98.8581 43.112 98.8581 42.272C98.8036 40.4205 98.6157 38.575 98.2956 36.749C97.8545 34.6064 97.2433 32.5001 96.4675 30.449C94.5236 25.4118 91.5506 20.808 87.727 16.9145L86.9373 16.085C86.6669 15.8225 86.364 15.5705 86.0719 15.3185L84.2545 13.7645C83.645 13.2436 83.0058 12.7564 82.3399 12.305C81.6692 11.843 81.0094 11.36 80.3279 10.877C77.4012 9.03913 74.2739 7.52139 71.0032 6.35151C70.1594 6.06801 69.3049 5.74252 68.4395 5.46952L65.7459 4.79752L64.3829 4.46151C63.9286 4.35651 63.4526 4.31451 62.9875 4.23051L60.1642 3.80001C56.2308 3.35607 52.2561 3.38428 48.3299 3.88401C46.2936 4.1355 44.2744 4.50365 42.2829 4.98651L39.2973 5.88951C38.2855 6.1726 37.2951 6.52344 36.3333 6.93951L34.8622 7.46451L34.1266 7.769L33.4126 8.13651L30.5352 9.63802C28.6501 10.7218 26.8431 11.9286 25.1265 13.25C17.8965 18.7361 12.7176 26.3706 10.3823 34.985C8.14994 43.64 9.15824 52.7833 13.2273 60.7835C15.1363 64.5646 17.6521 68.0272 20.6805 71.042C21.3837 71.8085 22.2274 72.4385 22.9846 73.142L24.1529 74.192L25.4077 75.095C26.2515 75.683 27.0412 76.334 27.9174 76.859L30.546 78.3815C33.9992 80.2451 37.6911 81.6573 41.5257 82.5815C45.1441 83.4911 48.8559 84.0053 52.592 84.1145C59.3116 84.21 65.9785 82.9515 72.1715 80.4185C77.2873 78.3455 81.9691 75.3811 85.9854 71.672C89.0489 68.903 91.6476 65.6862 93.6874 62.138C94.0984 61.403 94.5312 60.7415 94.8557 60.038C95.1802 59.3345 95.4506 58.7255 95.7102 58.1375L96.4458 56.4995L96.911 55.0925C97.1922 54.2735 97.3978 53.6435 97.5492 53.192C97.7007 52.7405 97.7872 52.541 97.7872 52.541C97.7872 52.541 97.7872 52.772 97.6033 53.2025C97.4194 53.633 97.2788 54.2525 97.0192 55.1345C96.8894 55.5545 96.7379 56.027 96.5864 56.552C96.435 57.077 96.1213 57.602 95.8725 58.2005L95.0287 60.122C94.715 60.794 94.2823 61.4765 93.8713 62.222C91.8537 65.8101 89.2653 69.0667 86.2017 71.8715C82.1785 75.6318 77.4778 78.6427 72.3338 80.7545C66.0912 83.3327 59.3648 84.6235 52.5811 84.545C48.8146 84.4578 45.0701 83.9612 41.4175 83.0645C37.5335 82.1252 33.7944 80.6918 30.2972 78.8015L27.6361 77.258C26.7599 76.733 25.9486 76.082 25.094 75.4835L23.8284 74.57L22.6385 73.52C21.8704 72.806 21.0158 72.176 20.3019 71.42C17.2278 68.3691 14.672 64.864 12.7297 61.0355C8.59723 52.9191 7.57349 43.6407 9.84143 34.859C12.2044 26.1164 17.4607 18.3693 24.802 12.809C26.5184 11.4746 28.3253 10.2538 30.2107 9.15501L33.0989 7.68502L33.8237 7.31751L34.5701 7.01302L36.0629 6.40402C37.0376 5.99238 38.0385 5.64166 39.0593 5.35402L42.0882 4.45102C44.1002 3.9596 46.1414 3.58791 48.2001 3.33802C52.1667 2.8398 56.1814 2.81863 60.1533 3.27501L63.0091 3.72651C63.4851 3.80001 63.9611 3.85252 64.4154 3.95752L65.7892 4.30402L68.5044 4.98651C69.3914 5.25951 70.246 5.59551 71.1006 5.88951C74.4008 7.07762 77.5539 8.62021 80.5009 10.4885L82.5238 11.9375C83.2007 12.3871 83.8475 12.8781 84.4601 13.4075L86.245 14.9825C86.537 15.2345 86.8399 15.4865 87.1212 15.749L87.9001 16.5995C91.7462 20.5222 94.7244 25.1675 96.6513 30.2495C97.4306 32.3365 98.0312 34.4822 98.4471 36.665C98.7603 38.5052 98.9338 40.3652 98.9663 42.23C98.9663 43.07 98.9663 43.8575 98.9663 44.603C98.9663 45.3485 98.8365 46.0415 98.7716 46.703C98.7067 47.3645 98.6526 47.942 98.6093 48.488C98.566 49.034 98.393 49.538 98.2956 49.937L97.8737 51.9005C97.8521 52.352 97.7872 52.6145 97.7872 52.6145Z" fill="#263238"/>
<path d="M84.4602 67.829L73.448 76.502C73.448 76.502 57.7627 81.5735 57.3625 80.954C56.9623 80.3345 50.6449 70.8425 46.2422 70.9895C38.5077 71.252 38.194 71.8715 32.6122 71.063C23.1578 69.6875 20.9619 59.513 21.1566 57.833C21.3513 56.153 29.0533 54.1265 32.3526 52.8665C35.6519 51.6065 37.0149 51.2075 41.7746 42.1355C43.0966 39.5905 45.1155 37.4483 47.6096 35.9443C50.1038 34.4402 52.9768 33.6323 55.913 33.6095C55.913 33.6095 64.74 8.89248 68.7749 12.2C72.8098 15.5075 72.9396 37.3055 72.9396 37.3055L77.4288 41.1485C78.2063 42.7051 79.3516 44.0614 80.7714 45.107C83.0431 46.724 86.1152 47.354 84.7955 48.1835C83.4758 49.013 80.8039 50.378 80.8039 50.378L84.7739 51.134L82.1885 55.0505L85.6717 54.7985L83.2703 59.219L87.9975 64.7315L84.4602 67.829Z" fill="#AE7461"/>
<path d="M47.6809 87.1385C61.5116 88.1466 75.2055 83.9041 85.8772 75.305C88.8707 72.8845 91.5773 70.1482 93.9471 67.1465C94.6691 66.2947 95.0238 65.205 94.9372 64.1052C94.8505 63.0054 94.329 61.9807 93.4819 61.2455C91.7295 59.912 88.8412 59.828 87.3917 61.697C86.4614 62.894 85.4878 64.049 84.4386 65.1515C83.9518 65.6555 83.4542 66.2015 82.9457 66.653L82.1128 67.43L81.7558 67.7555C81.3123 68.1755 82.3075 67.2935 81.8423 67.682C79.5179 69.6412 77.0203 71.398 74.3784 72.932C73.7618 73.289 73.1343 73.6355 72.5069 73.982L72.0634 74.2025C71.6199 74.4335 72.3014 74.0975 72.323 74.0765C71.9524 74.3132 71.5527 74.5037 71.1331 74.6435C69.7377 75.2735 68.3098 75.851 66.8602 76.3655C65.4107 76.88 63.9287 77.321 62.4359 77.699L61.4731 77.93C61.3108 77.93 60.1317 78.203 60.7483 78.0875L60.1858 78.1925L58.8769 78.413C57.1923 78.6656 55.4953 78.8338 53.7927 78.917C52.9165 78.917 52.0295 78.9695 51.1533 78.9695C50.7639 78.9695 50.3744 78.9695 49.9958 78.9695H49.336C50.4177 79.0325 48.6977 78.9695 49.336 78.9695C47.0968 78.812 44.6412 79.862 44.2734 82.277C43.9597 84.3035 45.2794 87.023 47.6809 87.191V87.1385Z" fill="#263238"/>
<path d="M36.5497 17.03C34.8622 18.941 32.0821 24.8 33.8453 32.549C35.6086 40.298 41.9909 47.9945 41.9909 47.9945L54.2146 38.5445L36.5497 17.03Z" fill="#AE7461"/>
<path d="M25.2671 55.0505C25.2671 55.0505 18.1817 55.7645 20.4425 60.3845L22.606 63.734C22.606 63.734 26.403 61.046 26.5977 57.791C26.7708 54.9245 25.3212 55.0505 25.3212 55.0505" fill="#263238"/>
<path d="M55.913 33.6095C54.4492 33.8236 53.0032 34.1395 51.586 34.5545C50.0652 35.0547 48.6123 35.7316 47.259 36.5705C45.6277 37.5865 44.2136 38.8985 43.0943 40.4345C42.052 42.0467 41.0987 43.7116 40.2384 45.422C39.4964 46.8219 38.6199 48.1508 37.6206 49.391C36.9405 50.2261 36.1126 50.9372 35.1759 51.491C34.8459 51.7006 34.4793 51.85 34.0941 51.932C35.3698 51.2288 36.4762 50.2695 37.3394 49.118C38.2755 47.8629 39.104 46.5355 39.8166 45.149C40.6564 43.41 41.6066 41.7233 42.6616 40.0985C43.8107 38.5006 45.2829 37.1466 46.9886 36.119C48.3724 35.2796 49.8634 34.6195 51.4237 34.1555C52.4795 33.8427 53.568 33.6455 54.6689 33.5675C55.0833 33.5183 55.5031 33.5324 55.913 33.6095Z" fill="#263238"/>
<path d="M67.7688 18.101C64.4597 22.958 62.6403 28.6276 62.5224 34.4495C62.9849 33.1952 63.8161 32.1001 64.9131 31.2995C65.1943 32.7905 65.4864 34.271 65.7676 35.7515C65.9926 34.4802 66.7279 33.3474 67.8121 32.6015C68.614 33.5742 69.2262 34.6809 69.6186 35.867C70.6305 29.9736 69.9145 23.9228 67.5525 18.4055" fill="#6F4439"/>
<path d="M48.6219 47.5325C47.4752 47.8685 46.9668 49.8425 47.4861 50.8925C47.7711 51.404 48.2501 51.7877 48.8216 51.9621C49.3931 52.1366 50.0121 52.0881 50.5474 51.827C51.0649 51.5279 51.4498 51.0532 51.6277 50.4946C51.8055 49.9361 51.7636 49.3333 51.5102 48.803C51.2245 48.2892 50.7653 47.8866 50.2097 47.6629C49.6542 47.4391 49.0362 47.4079 48.4597 47.5745" fill="#263238"/>
<path d="M53.4573 44.519C53.122 45.212 52.0294 45.422 50.9044 45.569C49.7794 45.716 48.6652 45.569 48.2325 44.9495C48.0378 44.624 48.1351 44.162 48.5787 43.721C49.1612 43.1753 49.9329 42.8608 50.7421 42.839C51.5291 42.7663 52.3174 42.9632 52.9705 43.3955C53.4249 43.7315 53.598 44.2145 53.4573 44.519Z" fill="#263238"/>
<path d="M44.825 59.702C44.825 59.702 44.825 59.8175 44.825 60.0275C44.8535 60.3314 44.8535 60.6371 44.825 60.941C44.6839 62.066 44.2766 63.1441 43.6351 64.091C42.6829 65.5019 41.4556 66.7182 40.0221 67.6715C39.1955 68.2468 38.3359 68.7762 37.4475 69.257C36.4693 69.7684 35.4199 70.1397 34.3321 70.3595C32.2364 70.8505 30.0376 70.7263 28.0147 70.0025C26.4341 69.2315 25.1324 68.012 24.2827 66.506C23.6889 65.5444 23.1787 64.5364 22.7574 63.4925C22.5744 63.1181 22.44 62.723 22.3572 62.3165C22.4654 62.3165 23.082 63.9335 24.6181 66.3065C25.4631 67.7001 26.7121 68.8212 28.2094 69.53C30.1399 70.1864 32.2244 70.2885 34.2131 69.824C36.2128 69.3529 38.0884 68.4801 39.7192 67.262C41.1198 66.362 42.3343 65.2152 43.2997 63.881C43.942 62.9896 44.3842 61.9773 44.5978 60.9095C44.6485 60.5029 44.7244 60.0997 44.825 59.702Z" fill="#263238"/>
<path d="M87.2402 24.5165C82.9133 15.3815 69.1643 6.88701 61.5597 8.50401C57.7087 9.10251 57.6762 12.4415 58.7363 14.426C59.3499 15.377 60.1563 16.197 61.1066 16.8359C62.0569 17.4749 63.1311 17.9196 64.264 18.143C66.4816 18.731 68.8182 18.8675 71.0357 19.4765C74.7918 20.5106 78.0444 22.8116 80.2089 25.9655C80.901 27.217 81.7593 28.3748 82.7619 29.4095C83.2718 29.9188 83.9349 30.2583 84.6559 30.379C85.377 30.4997 86.1188 30.3956 86.7751 30.0815C88.5492 28.979 88.1056 26.3645 87.2402 24.5165Z" fill="white"/>
<path d="M89.7281 34.985C89.1837 35.2379 88.7573 35.6806 88.534 36.2249C88.3106 36.7692 88.3065 37.3752 88.5227 37.9223C88.7388 38.4693 89.1593 38.9173 89.7003 39.177C90.2414 39.4368 90.8634 39.4892 91.4425 39.3239C92.0216 39.1585 92.5153 38.7876 92.8253 38.2849C93.1354 37.7822 93.2391 37.1846 93.1157 36.611C92.9922 36.0375 92.6508 35.5301 92.1594 35.1899C91.668 34.8496 91.0626 34.7015 90.4638 34.775" fill="white"/>
</svg>
