<svg width="111" height="111" viewBox="0 0 111 111" fill="none" xmlns="http://www.w3.org/2000/svg">
<path d="M82.7527 82.7527C97.9871 67.5184 97.9871 42.8186 82.7527 27.5842C67.5184 12.3499 42.8186 12.3499 27.5842 27.5842C12.3499 42.8186 12.3499 67.5184 27.5842 82.7527C42.8186 97.9871 67.5184 97.9871 82.7527 82.7527Z" fill="#215BA6"/>
<path opacity="0.4" d="M82.7527 82.7527C97.9871 67.5184 97.9871 42.8186 82.7527 27.5842C67.5184 12.3499 42.8186 12.3499 27.5842 27.5842C12.3499 42.8186 12.3499 67.5184 27.5842 82.7527C42.8186 97.9871 67.5184 97.9871 82.7527 82.7527Z" fill="white"/>
<path opacity="0.2" d="M83.1694 58.1755L82.2794 58.3055C82.1645 58.324 82.047 58.3175 81.9348 58.2864C81.8227 58.2553 81.7185 58.2005 81.6294 58.1255L80.1894 56.9155C80.1267 56.8665 80.0598 56.823 79.9894 56.7855L75.7894 54.9755C75.6478 54.9138 75.5265 54.8132 75.4394 54.6855L73.0694 51.3355C72.9647 51.1821 72.8192 51.0609 72.6494 50.9855L71.2594 50.3455C71.1964 50.315 71.1289 50.2948 71.0594 50.2855L69.5894 50.0655C69.3868 50.0296 69.1952 49.9475 69.0294 49.8255L65.9094 47.4655C65.7831 47.3728 65.635 47.3142 65.4794 47.2955L63.1894 46.9955C63.04 46.9752 62.8879 46.9959 62.7494 47.0555L62.1294 47.3255C62.0251 47.3701 61.9129 47.3931 61.7994 47.3931C61.686 47.3931 61.5738 47.3701 61.4694 47.3255L58.7394 46.0655C58.5782 45.9862 58.3945 45.965 58.2194 46.0055L55.7994 46.5455C55.6479 46.5835 55.5117 46.6673 55.4094 46.7855L54.4094 47.8855C54.3241 47.9799 54.2153 48.0499 54.0941 48.0886C53.9729 48.1272 53.8436 48.1331 53.7194 48.1055L51.7194 47.6855L47.5094 45.8055L46.1394 43.6655C46.0377 43.4978 46.0021 43.2981 46.0394 43.1055L46.3394 41.4455L47.3394 39.0655C47.351 39.0423 47.3558 39.0163 47.3534 38.9905C47.351 38.9647 47.3415 38.9401 47.326 38.9194C47.3104 38.8986 47.2894 38.8826 47.2653 38.8731C47.2412 38.8636 47.215 38.861 47.1894 38.8655L45.4194 39.0755C45.3078 39.0898 45.2009 39.1298 45.1072 39.1922C45.0136 39.2547 44.9356 39.3379 44.8794 39.4355L44.3594 40.3355C44.2998 40.4361 44.2202 40.5234 44.1257 40.5922C44.0311 40.661 43.9235 40.7098 43.8094 40.7355L41.3894 41.2755C41.2781 41.3039 41.1602 41.2886 41.0598 41.2328C40.9594 41.177 40.8842 41.085 40.8494 40.9755L40.5494 40.0655L39.8094 38.7055C39.7414 38.5941 39.7054 38.4661 39.7054 38.3355C39.7054 38.205 39.7414 38.077 39.8094 37.9655L41.0094 36.2155L41.4794 35.0055C41.5386 34.8485 41.6475 34.715 41.7894 34.6255L43.3794 33.6255C43.541 33.5264 43.7311 33.4842 43.9194 33.5055L45.4294 33.7155C45.5249 33.7297 45.6223 33.7237 45.7154 33.6978C45.8084 33.672 45.8949 33.6269 45.9694 33.5655L46.5794 33.0855C46.6904 33.004 46.8221 32.9554 46.9594 32.9455L48.6494 32.8255C48.7874 32.8181 48.925 32.8456 49.0494 32.9055L49.9594 33.3255C50.047 33.3687 50.1207 33.4357 50.172 33.5188C50.2233 33.602 50.2501 33.6979 50.2494 33.7955V34.6055C50.2494 34.7328 50.3 34.8549 50.39 34.9449C50.48 35.035 50.6021 35.0855 50.7294 35.0855H50.9994C51.0857 35.0844 51.1708 35.0656 51.2495 35.0303C51.3282 34.9949 51.3988 34.9438 51.457 34.8801C51.5151 34.8163 51.5595 34.7413 51.5875 34.6597C51.6154 34.578 51.6263 34.4915 51.6194 34.4055L51.5394 33.7055L51.3794 32.2855C51.363 32.1503 51.3888 32.0134 51.4532 31.8935C51.5177 31.7735 51.6176 31.6764 51.7394 31.6155L53.3594 30.8055L55.4794 28.4755L56.9194 26.3055L59.5794 25.4755C59.6913 25.4415 59.7894 25.3728 59.8595 25.2793C59.9296 25.1858 59.9681 25.0724 59.9694 24.9555V23.6555C59.9685 23.5404 60.0065 23.4283 60.0773 23.3376C60.1481 23.2468 60.2475 23.1826 60.3594 23.1555L62.1194 22.7255C62.2761 22.6878 62.4144 22.5957 62.5094 22.4655L63.2394 21.3855C63.2651 21.349 63.2821 21.3069 63.2888 21.2628C63.2956 21.2186 63.2921 21.1734 63.2786 21.1308C63.265 21.0882 63.2418 21.0493 63.2107 21.0172C63.1796 20.985 63.1416 20.9605 63.0994 20.9455L59.8894 19.7655L57.5394 18.6255C57.4378 18.5768 57.3251 18.5557 57.2127 18.5645C57.1003 18.5733 56.9923 18.6116 56.8994 18.6755L53.8994 20.7655C53.7946 20.8362 53.6733 20.8789 53.5473 20.8894C53.4212 20.8999 53.2946 20.8779 53.1794 20.8255L51.0094 19.8255L49.3794 19.0755C49.3473 19.0615 49.32 19.0385 49.3008 19.0092C49.2816 18.9798 49.2714 18.9456 49.2714 18.9105C49.2714 18.8755 49.2816 18.8412 49.3008 18.8119C49.32 18.7826 49.3473 18.7595 49.3794 18.7455L51.0294 18.1955C51.1029 18.173 51.171 18.1355 51.2294 18.0855L53.4694 16.2055C47.8809 16.4993 42.4224 18.0004 37.4694 20.6055C35.4812 25.6704 34.0723 30.9439 33.2694 36.3255C33.2547 36.4506 33.2696 36.5773 33.3131 36.6954C33.3565 36.8136 33.4272 36.9198 33.5194 37.0055L39.6594 42.8855C39.7688 42.9887 39.9097 43.0521 40.0594 43.0655L42.3394 43.3155C42.4537 43.3247 42.5637 43.3625 42.6594 43.4255L51.4594 48.7155C51.5653 48.7756 51.6511 48.8654 51.7062 48.9739C51.7613 49.0824 51.7833 49.2047 51.7694 49.3255L50.9194 58.2155C50.8809 58.5481 50.9586 58.8838 51.1394 59.1655L55.4394 65.9955C55.496 66.0835 55.567 66.1612 55.6494 66.2255L58.9494 68.7655C59.0287 68.827 59.09 68.9086 59.1269 69.0018C59.1639 69.095 59.1751 69.1965 59.1594 69.2955L57.9794 76.5155L55.7294 87.6655C55.9494 89.1655 57.8994 88.2455 60.7294 86.1455L63.5394 81.5255L66.0094 80.5255L72.3294 76.0155L76.6794 71.0855L79.0194 65.9055C79.06 65.8231 79.1104 65.7459 79.1694 65.6755L81.5494 62.9455L83.1394 61.2955C83.2839 61.1445 83.366 60.9445 83.3694 60.7355V58.3555C83.3714 58.3296 83.3674 58.3036 83.3577 58.2795C83.348 58.2554 83.333 58.2338 83.3136 58.2164C83.2943 58.199 83.2713 58.1863 83.2463 58.1792C83.2213 58.1721 83.195 58.1709 83.1694 58.1755Z" fill="black"/>
<path d="M72.5495 24.4455H72.4995C72.5041 24.4258 72.5041 24.4053 72.4995 24.3855L72.5495 24.4455Z" fill="white"/>
</svg>
