<svg width="90" height="90" viewBox="0 0 90 90" fill="none" xmlns="http://www.w3.org/2000/svg">
<path d="M44.98 89.96C69.8217 89.96 89.96 69.8218 89.96 44.98C89.96 20.1382 69.8217 0 44.98 0C20.1382 0 0 20.1382 0 44.98C0 69.8218 20.1382 89.96 44.98 89.96Z" fill="#263238"/>
<path opacity="0.8" d="M44.98 89.96C69.8217 89.96 89.96 69.8218 89.96 44.98C89.96 20.1382 69.8217 0 44.98 0C20.1382 0 0 20.1382 0 44.98C0 69.8218 20.1382 89.96 44.98 89.96Z" fill="white"/>
<path opacity="0.3" d="M15.89 28.98C14.1 26.98 17.15 21.34 22.7 16.49C28.25 11.64 34.2 9.38004 36 11.49C37.8 13.6 34.74 19.13 29.19 23.98C23.64 28.83 17.69 31.04 15.89 28.98Z" fill="black"/>
<path opacity="0.4" d="M16.48 29.65C15.01 27.97 18.32 22.65 23.87 17.83C29.42 13.01 35.11 10.42 36.58 12.11C38.05 13.8 34.74 19.11 29.19 23.93C23.64 28.75 17.95 31.34 16.48 29.65Z" fill="white"/>
<path opacity="0.3" d="M62.55 57.43C68.02 59.19 70.5 66.68 68.1 74.17C65.7 81.66 59.3 86.3 53.83 84.54C48.36 82.78 45.88 75.28 48.28 67.8C50.68 60.32 57.08 55.67 62.55 57.43Z" fill="black"/>
<path opacity="0.4" d="M61.62 57.13C66.57 58.72 68.62 66.08 66.23 73.57C63.84 81.06 57.86 85.83 52.9 84.24C47.94 82.65 45.9 75.24 48.28 67.8C50.66 60.36 56.66 55.54 61.62 57.13Z" fill="white"/>
<path opacity="0.3" d="M66.92 50.2799C68.03 50.6399 68.53 52.16 68.04 53.68C67.55 55.2 66.26 56.1299 65.15 55.7799C64.04 55.4299 63.54 53.9 64.03 52.38C64.52 50.86 65.83 49.9299 66.92 50.2799Z" fill="black"/>
<path opacity="0.4" d="M66.38 50.11C67.19 50.37 67.45 51.81 66.97 53.33C66.49 54.85 65.42 55.86 64.61 55.6C63.8 55.34 63.54 53.9 64.03 52.38C64.52 50.86 65.57 49.85 66.38 50.11Z" fill="white"/>
<path opacity="0.3" d="M63.26 13.98C64.55 12.71 67.6 13.71 70.09 16.23C72.58 18.75 73.54 21.81 72.25 23.08C70.96 24.35 67.9 23.35 65.42 20.84C62.94 18.33 61.97 15.25 63.26 13.98Z" fill="black"/>
<path opacity="0.4" d="M62.83 14.4C63.89 13.4 66.75 14.54 69.24 17.06C71.73 19.58 72.87 22.45 71.82 23.5C70.77 24.55 67.89 23.35 65.41 20.84C62.93 18.33 61.83 15.44 62.83 14.4Z" fill="white"/>
<path opacity="0.3" d="M85.36 37.12C86.88 37.12 88.05 39.59 87.97 42.55C87.89 45.51 86.6 47.88 85.08 47.85C83.56 47.82 82.39 45.37 82.47 42.41C82.55 39.45 83.83 37.08 85.36 37.12Z" fill="black"/>
<path opacity="0.4" d="M84.83 37.1C86.08 37.1 87.03 39.56 86.95 42.53C86.87 45.5 85.8 47.86 84.56 47.83C83.32 47.8 82.36 45.37 82.44 42.41C82.52 39.45 83.62 37.07 84.83 37.1Z" fill="white"/>
<path opacity="0.2" d="M13.36 76.98C13.36 76.98 49.36 95.62 72.1 73.54C91.48 54.71 81.46 18.65 81.46 18.65C93.29 35.65 93.13 60.65 76.6 76.98C58.41 94.86 30.05 93.39 13.36 76.98Z" fill="black"/>
<path opacity="0.3" d="M14.74 36.02C13.47 35.61 11.74 37.33 10.99 39.85C10.24 42.37 10.57 44.74 11.84 45.15C13.11 45.56 14.79 43.83 15.59 41.31C16.39 38.79 16.01 36.42 14.74 36.02Z" fill="black"/>
<path opacity="0.4" d="M15.15 36.15C14.15 35.82 12.62 37.59 11.82 40.15C11.02 42.71 11.21 44.99 12.26 45.32C13.31 45.65 14.79 43.87 15.59 41.32C16.39 38.77 16.2 36.48 15.15 36.15Z" fill="white"/>
<path opacity="0.3" d="M23.26 74.96C21.2 76.49 16.96 74.27 13.79 69.96C10.62 65.65 9.71999 60.96 11.79 59.47C13.86 57.98 18.09 60.15 21.26 64.41C24.43 68.67 25.32 73.42 23.26 74.96Z" fill="black"/>
<path opacity="0.4" d="M23.93 74.46C22.24 75.71 18.3 73.27 15.13 69.01C11.96 64.75 10.76 60.27 12.45 59.01C14.14 57.75 18.08 60.19 21.25 64.45C24.42 68.71 25.62 73.2 23.93 74.46Z" fill="white"/>
<path d="M49.95 43.6C49.82 46.02 48.41 47.93 46.82 47.82C45.23 47.71 44.08 45.67 44.21 43.25C44.34 40.83 45.76 38.95 47.35 39.04C48.94 39.13 50.09 41.15 49.95 43.6Z" fill="#263238"/>
<path d="M25.47 38.05C25.34 40.47 23.93 42.38 22.34 42.27C20.75 42.16 19.6 40.12 19.73 37.7C19.86 35.28 21.28 33.4 22.87 33.48C24.46 33.56 25.61 35.6 25.47 38.05Z" fill="#263238"/>
<path d="M45.66 25.83C45.4801 25.5911 45.3694 25.3075 45.34 25.01C45.3682 24.6324 45.5409 24.2803 45.8221 24.027C46.1034 23.7737 46.4716 23.6386 46.85 23.65C49.1149 23.6932 51.3354 24.2855 53.321 25.3758C55.3066 26.4662 56.998 28.0221 58.25 29.9099C58.4405 30.2353 58.4949 30.6227 58.4012 30.9878C58.3076 31.353 58.0736 31.6665 57.75 31.8599C57.4159 32.048 57.0224 32.101 56.6505 32.008C56.2785 31.915 55.9563 31.6831 55.75 31.3599C54.7227 29.8742 53.3492 28.6608 51.748 27.8245C50.1469 26.9882 48.3663 26.5542 46.56 26.5599C46.1788 26.4385 45.8575 26.1778 45.66 25.83Z" fill="#263238"/>
<path d="M15.76 22.85C15.4767 22.7603 15.2216 22.5983 15.02 22.38C14.8144 22.058 14.7432 21.6682 14.8217 21.2943C14.9002 20.9204 15.1222 20.5921 15.44 20.38C17.2954 19.0803 19.4386 18.2502 21.6855 17.9611C23.9324 17.6719 26.2159 17.9324 28.34 18.72C28.5116 18.794 28.6668 18.9011 28.7969 19.0352C28.927 19.1693 29.0294 19.3277 29.0981 19.5015C29.1668 19.6752 29.2006 19.8607 29.1975 20.0475C29.1944 20.2343 29.1545 20.4187 29.08 20.59C28.9188 20.9262 28.6367 21.1892 28.29 21.3264C27.9433 21.4636 27.5576 21.4649 27.21 21.33C25.5028 20.7377 23.6774 20.5683 21.8904 20.8365C20.1033 21.1048 18.4081 21.8026 16.95 22.87C16.7602 22.9458 16.5573 22.9831 16.353 22.9796C16.1487 22.9762 15.9471 22.9321 15.76 22.85Z" fill="#263238"/>
<path d="M31.83 63.31C36.12 63.31 48.55 62.6 55.48 54.82C55.6176 54.666 55.6886 54.4638 55.6774 54.2576C55.6661 54.0513 55.5736 53.858 55.42 53.72C55.3444 53.6505 55.2557 53.597 55.159 53.5623C55.0624 53.5277 54.9599 53.5128 54.8574 53.5184C54.7549 53.5239 54.6545 53.55 54.5623 53.5949C54.47 53.6398 54.3876 53.7027 54.32 53.78C46.54 62.52 30.61 61.72 30.44 61.72C30.2347 61.709 30.0334 61.7796 29.8798 61.9163C29.7263 62.053 29.6329 62.2448 29.62 62.45C29.6132 62.5519 29.6268 62.6542 29.66 62.7509C29.6932 62.8475 29.7452 62.9366 29.8132 63.0129C29.8811 63.0892 29.9636 63.1513 30.0558 63.1954C30.1479 63.2395 30.2479 63.2649 30.35 63.27C30.42 63.28 30.95 63.31 31.83 63.31Z" fill="#263238"/>
</svg>
