<svg width="117" height="354" viewBox="0 0 117 354" fill="none" xmlns="http://www.w3.org/2000/svg">
<path d="M86.7078 257.25C86.7181 261.376 85.8288 265.456 84.1018 269.203C82.3747 272.951 79.8515 276.277 76.7078 278.95C74.6154 280.667 72.9236 282.82 71.7507 285.259C70.5778 287.698 69.9522 290.364 69.9178 293.07V342.49C69.9178 344.22 68.7878 345.96 66.4978 347.28C65.1547 348.023 63.7039 348.553 62.1978 348.85C59.5578 349.384 56.8377 349.384 54.1978 348.85C52.696 348.549 51.2492 348.019 49.9078 347.28C47.6278 345.96 46.4778 344.22 46.4778 342.49V292.94C46.4504 290.259 45.8364 287.616 44.6789 285.198C43.5215 282.779 41.8486 280.643 39.7778 278.94C36.5736 276.247 34.006 272.877 32.2596 269.073C30.5132 265.269 29.6315 261.125 29.6778 256.94C29.9023 249.511 33.0188 242.464 38.3633 237.299C43.7078 232.135 50.8578 229.262 58.2898 229.291C65.7218 229.321 72.8484 232.252 78.151 237.46C83.4537 242.667 86.5132 249.74 86.6778 257.17L86.7078 257.25Z" fill="#C53F3F"/>
<g opacity="0.5">
<path d="M86.7078 257.25C86.7181 261.376 85.8288 265.456 84.1018 269.203C82.3747 272.951 79.8515 276.277 76.7078 278.95C74.6154 280.667 72.9236 282.82 71.7507 285.259C70.5778 287.698 69.9522 290.364 69.9178 293.07V342.49C69.9178 344.22 68.7878 345.96 66.4978 347.28C65.1547 348.023 63.7039 348.553 62.1978 348.85C59.5578 349.384 56.8377 349.384 54.1978 348.85C52.696 348.549 51.2492 348.019 49.9078 347.28C47.6278 345.96 46.4778 344.22 46.4778 342.49V292.94C46.4504 290.259 45.8364 287.616 44.6789 285.198C43.5215 282.779 41.8486 280.643 39.7778 278.94C36.5736 276.247 34.006 272.877 32.2596 269.073C30.5132 265.269 29.6315 261.125 29.6778 256.94C29.9023 249.511 33.0188 242.464 38.3633 237.299C43.7078 232.135 50.8578 229.262 58.2898 229.291C65.7218 229.321 72.8484 232.252 78.151 237.46C83.4537 242.667 86.5132 249.74 86.6778 257.17L86.7078 257.25Z" fill="white"/>
</g>
<path d="M74.1077 257.25C74.1062 259.788 73.4961 262.288 72.3285 264.542C71.161 266.795 69.4701 268.735 67.3977 270.2C65.7534 271.423 64.4234 273.019 63.5175 274.856C62.6116 276.694 62.1558 278.721 62.1877 280.77V342.49C62.1984 343.022 62.1028 343.551 61.9065 344.045C61.7103 344.54 61.4173 344.99 61.0448 345.37C60.6723 345.75 60.2278 346.052 59.7372 346.258C59.2466 346.464 58.7198 346.57 58.1877 346.57H58.1077C57.5807 346.562 57.0604 346.45 56.5768 346.241C56.0932 346.031 55.6557 345.728 55.2896 345.349C54.9234 344.97 54.6358 344.522 54.4433 344.032C54.2508 343.541 54.1571 343.017 54.1677 342.49V280.57C54.1862 278.549 53.7222 276.553 52.8143 274.748C51.9065 272.943 50.5809 271.38 48.9477 270.19C46.8153 268.682 45.0881 266.671 43.9194 264.335C42.7506 261.999 42.1764 259.411 42.2477 256.8C42.3928 252.64 44.1624 248.702 47.1769 245.832C50.1915 242.962 54.211 241.387 58.3731 241.446C62.5353 241.505 66.5086 243.193 69.4408 246.147C72.3729 249.102 74.0305 253.088 74.0577 257.25H74.1077Z" fill="#C53F3F"/>
<g opacity="0.7">
<path d="M74.1077 257.25C74.1062 259.788 73.4961 262.288 72.3285 264.542C71.161 266.795 69.4701 268.735 67.3977 270.2C65.7534 271.423 64.4234 273.019 63.5175 274.856C62.6116 276.694 62.1558 278.721 62.1877 280.77V342.49C62.1984 343.022 62.1028 343.551 61.9065 344.045C61.7103 344.54 61.4173 344.99 61.0448 345.37C60.6723 345.75 60.2278 346.052 59.7372 346.258C59.2466 346.464 58.7198 346.57 58.1877 346.57H58.1077C57.5807 346.562 57.0604 346.45 56.5768 346.241C56.0932 346.031 55.6557 345.728 55.2896 345.349C54.9234 344.97 54.6358 344.522 54.4433 344.032C54.2508 343.541 54.1571 343.017 54.1677 342.49V280.57C54.1862 278.549 53.7222 276.553 52.8143 274.748C51.9065 272.943 50.5809 271.38 48.9477 270.19C46.8153 268.682 45.0881 266.671 43.9194 264.335C42.7506 261.999 42.1764 259.411 42.2477 256.8C42.3928 252.64 44.1624 248.702 47.1769 245.832C50.1915 242.962 54.211 241.387 58.3731 241.446C62.5353 241.505 66.5086 243.193 69.4408 246.147C72.3729 249.102 74.0305 253.088 74.0577 257.25H74.1077Z" fill="white"/>
</g>
<g opacity="0.7">
<path d="M62.6677 267.78C62.6677 266.31 63.1035 264.874 63.9199 263.652C64.7363 262.43 65.8967 261.478 67.2544 260.916C68.612 260.353 70.106 260.206 71.5472 260.493C72.9885 260.779 74.3124 261.487 75.3515 262.526C76.3906 263.565 77.0983 264.889 77.385 266.33C77.6717 267.772 77.5245 269.266 76.9621 270.623C76.3998 271.981 75.4475 273.141 74.2256 273.958C73.0038 274.774 71.5672 275.21 70.0977 275.21C68.1272 275.21 66.2373 274.427 64.8439 273.034C63.4505 271.64 62.6677 269.751 62.6677 267.78Z" fill="white"/>
</g>
<g opacity="0.7">
<path d="M65.5577 252.99C65.5577 252.092 65.824 251.214 66.3229 250.468C66.8217 249.721 67.5308 249.139 68.3604 248.796C69.1899 248.452 70.1028 248.362 70.9834 248.537C71.8641 248.712 72.6731 249.145 73.308 249.78C73.9429 250.415 74.3753 251.224 74.5505 252.104C74.7257 252.985 74.6358 253.898 74.2922 254.727C73.9485 255.557 73.3666 256.266 72.62 256.765C71.8734 257.264 70.9957 257.53 70.0977 257.53C69.5015 257.53 68.9112 257.413 68.3604 257.184C67.8095 256.956 67.3091 256.622 66.8875 256.2C66.4659 255.779 66.1315 255.278 65.9033 254.727C65.6752 254.176 65.5577 253.586 65.5577 252.99Z" fill="white"/>
</g>
<g opacity="0.7">
<path d="M56.9177 245.74C56.9177 245.295 57.0497 244.86 57.2969 244.49C57.5442 244.12 57.8956 243.832 58.3067 243.661C58.7178 243.491 59.1702 243.446 59.6067 243.533C60.0431 243.62 60.444 243.834 60.7587 244.149C61.0734 244.464 61.2877 244.865 61.3745 245.301C61.4613 245.738 61.4168 246.19 61.2465 246.601C61.0762 247.012 60.7878 247.364 60.4178 247.611C60.0477 247.858 59.6127 247.99 59.1677 247.99C58.571 247.99 57.9987 247.753 57.5767 247.331C57.1548 246.909 56.9177 246.337 56.9177 245.74Z" fill="white"/>
</g>
<g opacity="0.7">
<path d="M38.9177 248.45C38.9158 247.241 39.2724 246.059 39.9426 245.053C40.6128 244.047 41.5663 243.262 42.6826 242.798C43.7989 242.334 45.0277 242.212 46.2136 242.446C47.3995 242.681 48.4891 243.262 49.3446 244.116C50.2001 244.97 50.783 246.059 51.0196 247.244C51.2562 248.43 51.1357 249.659 50.6736 250.776C50.2114 251.893 49.4283 252.848 48.4233 253.52C47.4183 254.191 46.2366 254.55 45.0277 254.55C43.4098 254.547 41.8587 253.904 40.7138 252.761C39.5688 251.618 38.923 250.068 38.9177 248.45Z" fill="white"/>
</g>
<g opacity="0.7">
<path d="M37.9177 259.48C37.9158 260.048 38.0824 260.604 38.3966 261.077C38.7107 261.55 39.1583 261.92 39.6825 262.139C40.2067 262.357 40.7841 262.416 41.3415 262.306C41.8989 262.196 42.4112 261.924 42.8136 261.523C43.2159 261.122 43.4903 260.611 43.6018 260.054C43.7134 259.497 43.6571 258.919 43.4402 258.394C43.2233 257.869 42.8554 257.42 42.3833 257.104C41.9111 256.789 41.3558 256.62 40.7877 256.62C40.0283 256.62 39.2998 256.921 38.7619 257.457C38.2239 257.993 37.9204 258.721 37.9177 259.48Z" fill="white"/>
</g>
<g opacity="0.7">
<path d="M40.0277 269.5C40.0277 268.58 40.3004 267.681 40.8114 266.917C41.3223 266.152 42.0485 265.556 42.8982 265.204C43.7479 264.852 44.6829 264.76 45.5849 264.939C46.4869 265.119 47.3154 265.562 47.9658 266.212C48.6161 266.862 49.0589 267.691 49.2384 268.593C49.4178 269.495 49.3257 270.43 48.9738 271.279C48.6218 272.129 48.0258 272.855 47.2611 273.366C46.4964 273.877 45.5974 274.15 44.6777 274.15C43.4444 274.15 42.2617 273.66 41.3897 272.788C40.5176 271.916 40.0277 270.733 40.0277 269.5Z" fill="white"/>
</g>
<g opacity="0.7">
<path d="M51.1178 276.52C51.1178 275.763 51.3424 275.022 51.7633 274.392C52.1841 273.762 52.7823 273.271 53.4821 272.982C54.182 272.692 54.952 272.616 55.695 272.764C56.4379 272.911 57.1204 273.276 57.656 273.812C58.1917 274.347 58.5564 275.03 58.7042 275.773C58.852 276.516 58.7762 277.286 58.4863 277.986C58.1964 278.686 57.7055 279.284 57.0756 279.705C56.4458 280.125 55.7053 280.35 54.9478 280.35C53.932 280.35 52.9578 279.947 52.2396 279.228C51.5213 278.51 51.1178 277.536 51.1178 276.52Z" fill="white"/>
</g>
<g opacity="0.7">
<path d="M32.4578 252.99C32.4478 252.592 32.5566 252.201 32.7703 251.866C32.9839 251.53 33.2927 251.266 33.6571 251.107C34.0216 250.948 34.4252 250.901 34.8164 250.972C35.2076 251.044 35.5686 251.23 35.8534 251.508C36.1381 251.786 36.3336 252.142 36.4149 252.531C36.4962 252.92 36.4596 253.325 36.3098 253.693C36.1601 254.062 35.9038 254.377 35.5739 254.599C35.244 254.821 34.8554 254.94 34.4578 254.94C34.1975 254.947 33.9386 254.901 33.6962 254.806C33.4538 254.711 33.2329 254.569 33.0465 254.387C32.8601 254.205 32.712 253.988 32.6109 253.748C32.5097 253.508 32.4577 253.25 32.4578 252.99Z" fill="white"/>
</g>
<g opacity="0.7">
<path d="M74.9177 244.92C74.9177 244.412 75.0685 243.915 75.3508 243.492C75.6332 243.07 76.0346 242.74 76.5042 242.546C76.9738 242.351 77.4906 242.3 77.9891 242.399C78.4876 242.499 78.9456 242.743 79.305 243.103C79.6644 243.462 79.9092 243.92 80.0083 244.419C80.1075 244.917 80.0566 245.434 79.8621 245.903C79.6676 246.373 79.3382 246.774 78.9155 247.057C78.4929 247.339 77.996 247.49 77.4877 247.49C76.8069 247.487 76.1548 247.216 75.6734 246.734C75.192 246.253 74.9204 245.601 74.9177 244.92Z" fill="white"/>
</g>
<g opacity="0.7">
<path d="M80.0678 260.12C81.4982 260.12 82.6578 258.96 82.6578 257.53C82.6578 256.1 81.4982 254.94 80.0678 254.94C78.6374 254.94 77.4778 256.1 77.4778 257.53C77.4778 258.96 78.6374 260.12 80.0678 260.12Z" fill="white"/>
</g>
<g opacity="0.7">
<path d="M50.6677 259.64C50.6677 259.128 50.8196 258.627 51.1042 258.201C51.3888 257.775 51.7933 257.443 52.2666 257.247C52.7398 257.051 53.2606 257 53.763 257.1C54.2654 257.2 54.7269 257.446 55.0891 257.809C55.4513 258.171 55.698 258.632 55.798 259.135C55.8979 259.637 55.8466 260.158 55.6506 260.631C55.4545 261.104 55.1226 261.509 54.6967 261.794C54.2707 262.078 53.77 262.23 53.2577 262.23C52.5708 262.23 51.912 261.957 51.4263 261.471C50.9406 260.986 50.6677 260.327 50.6677 259.64Z" fill="white"/>
</g>
<g style="mix-blend-mode:lighten" opacity="0.5">
<path d="M60.5577 343.64C60.8777 344.38 60.2577 345.37 59.1577 345.85C58.0577 346.33 56.9077 346.12 56.5877 345.38C56.2677 344.64 56.8877 343.65 57.9777 343.17C59.0677 342.69 60.2277 342.93 60.5577 343.64Z" fill="white"/>
</g>
<g style="mix-blend-mode:lighten" opacity="0.5">
<path d="M56.3477 346.64C56.4747 346.806 56.5463 347.008 56.5525 347.217C56.5587 347.426 56.4992 347.632 56.3824 347.806C56.2655 347.979 56.0972 348.112 55.9011 348.184C55.7049 348.257 55.4909 348.267 55.2892 348.212C55.0874 348.156 54.908 348.039 54.7762 347.877C54.6445 347.714 54.567 347.515 54.5547 347.306C54.5424 347.097 54.5959 346.89 54.7077 346.713C54.8194 346.536 54.9838 346.399 55.1777 346.32C55.376 346.211 55.6092 346.183 55.8277 346.242C56.0462 346.302 56.2327 346.445 56.3477 346.64Z" fill="white"/>
</g>
<path d="M76.4078 236.91L58.2078 232.19L39.9978 236.91C39.9978 236.91 37.8178 246.66 40.1978 261.91C42.5778 277.16 53.1978 292.47 58.1978 292.47C63.1978 292.47 73.8178 277.18 76.1978 261.91C78.5778 246.64 76.4078 236.91 76.4078 236.91Z" fill="#C53F3F"/>
<g opacity="0.7">
<path d="M76.4078 236.91L58.2078 232.19L39.9978 236.91C39.9978 236.91 37.8178 246.66 40.1978 261.91C42.5778 277.16 53.1978 292.47 58.1978 292.47C63.1978 292.47 73.8178 277.18 76.1978 261.91C78.5778 246.64 76.4078 236.91 76.4078 236.91Z" fill="white"/>
</g>
<path d="M70.1178 239.11H45.1978C41.6378 260.63 53.0678 277.11 57.6578 277.11C62.2478 277.11 73.6778 260.64 70.1178 239.11Z" fill="#C53F3F"/>
<path d="M57.6578 239.11H61.9178C63.9031 242.607 64.7195 246.647 64.2478 250.64C63.7278 256.45 60.2478 264 57.6578 264C55.0678 264 51.5878 256.45 51.0778 250.64C50.6116 246.662 51.4204 242.639 53.3878 239.15H57.6578" fill="white"/>
<path d="M86.0978 230.33L83.7178 205.01H32.6178L30.2478 230.33C29.7578 234.8 32.4478 239.33 38.3678 242.78C49.3078 249.09 67.0278 249.09 77.9478 242.78C83.9178 239.36 86.5978 234.8 86.0978 230.33Z" fill="#37474F"/>
<path d="M40.0978 216.46C30.0978 210.69 30.0978 201.33 40.0978 195.55C50.0978 189.77 66.3178 189.78 76.3178 195.55C86.3178 201.32 86.3178 210.69 76.3178 216.46C66.3178 222.23 50.1078 222.23 40.0978 216.46Z" fill="#455A64"/>
<path d="M85.5478 224.13L84.7478 215.64C84.0178 218.91 81.4878 222.07 77.1378 224.58C66.6878 230.58 49.7378 230.58 39.2778 224.58C34.9278 222.07 32.3878 218.91 31.6578 215.65L30.8578 224.12C31.4978 227.61 34.1278 231 38.7578 233.67C49.5078 239.86 66.9178 239.86 77.6578 233.67C82.2778 231 84.9178 227.64 85.5478 224.13Z" fill="#C53F3F"/>
<path opacity="0.2" d="M58.6078 232.12C72.8578 232.12 81.5078 227.2 85.4078 222.69L84.8178 216.42C78.1578 221.02 69.0978 223.52 59.0078 223.52H58.2078C51.6731 223.673 45.1685 222.587 39.0378 220.32C39.3078 218.71 39.6178 216.96 39.9578 215.03L37.7978 205.03H34.7978L32.4178 207.27L30.2578 230.35C29.7678 234.82 32.4578 239.35 38.3778 242.8C49.3178 249.11 67.0378 249.11 77.9578 242.8C78.3278 242.59 78.6878 242.37 79.0278 242.15C79.0278 242.15 70.7478 246.27 58.0278 245.73C45.3078 245.19 37.5178 240.34 37.2878 236.73C37.1849 233.793 37.3658 230.853 37.8278 227.95C42.8378 230.45 49.7578 232.12 58.6078 232.12Z" fill="black"/>
<path d="M59.0078 223.52H58.2078C46.9578 223.65 36.9378 220.73 29.9978 215.26C28.7377 214.25 27.9278 212.783 27.7447 211.179C27.5616 209.574 28.02 207.962 29.0201 206.694C30.0202 205.426 31.4808 204.605 33.0838 204.41C34.6868 204.214 36.3021 204.66 37.5778 205.65C42.3378 209.41 49.6378 211.42 58.1178 211.29H58.2978C66.7878 211.38 74.0778 209.41 78.8378 205.65C79.468 205.145 80.192 204.769 80.9681 204.545C81.7441 204.321 82.5568 204.253 83.3593 204.345C84.1618 204.437 84.9382 204.686 85.6438 205.079C86.3494 205.472 86.9702 206.001 87.4704 206.635C87.9706 207.269 88.3403 207.996 88.5582 208.774C88.7762 209.552 88.838 210.365 88.7401 211.167C88.6423 211.969 88.3867 212.743 87.9881 213.446C87.5895 214.148 87.0558 214.765 86.4178 215.26C79.6478 220.64 69.9178 223.52 59.0078 223.52Z" fill="#455A64"/>
<path d="M33.7078 213.92C35.5478 213.92 42.4478 219.07 57.8278 219.07C73.2078 219.07 83.4778 213.07 88.3878 208.37C88.1645 207.75 87.8439 207.169 87.4378 206.65C86.4287 205.379 84.9567 204.56 83.3445 204.372C81.7323 204.185 80.1116 204.644 78.8378 205.65C74.0778 209.41 66.8378 211.38 58.2978 211.29H58.1178C49.6378 211.42 42.3378 209.41 37.5778 205.65C36.3021 204.66 34.6868 204.214 33.0838 204.41C31.4808 204.605 30.0202 205.426 29.0201 206.694C28.02 207.962 27.5616 209.574 27.7447 211.179C27.9278 212.783 28.7377 214.25 29.9978 215.26C36.9378 220.73 46.9978 223.65 58.2078 223.52C52.1227 223.412 46.1069 222.209 40.4478 219.97C34.3278 217.64 31.9178 213.92 33.7078 213.92Z" fill="#37474F"/>
<path d="M58.2079 216.64C48.8779 216.64 40.1279 214.54 33.5479 210.74C26.9679 206.94 23.4379 202.01 23.4379 196.74V196.36C23.0579 189.74 18.8479 114.8 21.3179 87.36C24.2279 55.04 48.4579 28.25 55.8079 20.81C56.1233 20.4898 56.4992 20.2356 56.9138 20.062C57.3284 19.8885 57.7734 19.7991 58.2229 19.7991C58.6723 19.7991 59.1173 19.8885 59.5319 20.062C59.9465 20.2356 60.3224 20.4898 60.6379 20.81C67.9979 28.25 92.2179 55.04 95.1279 87.36C97.5979 114.76 93.3979 189.7 93.0179 196.36V196.74C93.0179 202.02 89.4279 206.99 82.9179 210.74C76.4079 214.49 67.5279 216.64 58.2079 216.64Z" fill="#F5F5F5"/>
<path d="M58.2078 20.18C58.6064 20.1803 59.001 20.26 59.3684 20.4146C59.7359 20.5691 60.0688 20.7953 60.3478 21.08C67.6778 28.5 91.8278 55.2 94.7278 87.39C97.1578 114.34 93.1178 187.34 92.6378 195.93H92.5878V196.7C92.5878 201.83 89.0678 206.7 82.6778 210.38C76.2878 214.06 67.4578 216.22 58.2078 216.22C48.9578 216.22 40.2579 214.15 33.7379 210.38C27.2179 206.61 23.8278 201.83 23.8278 196.7V195.93C23.3378 187.34 19.3078 114.34 21.7278 87.39C24.6278 55.2 48.7778 28.5 56.1078 21.08C56.388 20.7941 56.7226 20.5672 57.0919 20.4126C57.4611 20.2581 57.8576 20.179 58.2578 20.18M58.2578 19.42C57.7574 19.4177 57.2616 19.5157 56.7996 19.708C56.3376 19.9004 55.9188 20.1832 55.5678 20.54C47.4978 28.7 23.8678 55.13 20.9678 87.32C18.7578 111.87 21.9678 176.41 23.1078 196.7C23.1078 201.89 26.5378 207.08 33.4078 211.05C40.2778 215.02 49.2578 216.99 58.2578 216.99C67.2578 216.99 76.2578 214.99 83.1078 211.05C89.9578 207.11 93.3978 201.89 93.3978 196.7C94.5678 176.41 97.7378 111.87 95.5278 87.32C92.5878 55.13 68.9178 28.7 60.9178 20.54C60.5681 20.1844 60.1509 19.9023 59.6907 19.7099C59.2305 19.5176 58.7366 19.419 58.2379 19.42H58.2578Z" fill="#E0E0E0"/>
<path d="M93.0778 164.64C91.3367 167.429 89.0221 169.815 86.2878 171.64C84.9173 172.538 83.5022 173.366 82.0478 174.12C80.5478 174.79 79.0478 175.53 77.5178 176.05C65.0193 180.423 51.4062 180.423 38.9078 176.05C37.3478 175.54 35.9078 174.79 34.3778 174.13C32.9478 173.32 31.4778 172.6 30.1278 171.65C27.3965 169.824 25.0853 167.438 23.3478 164.65C25.2977 167.224 27.7422 169.383 30.5378 171C31.8978 171.86 33.3678 172.51 34.7978 173.23C36.2278 173.95 37.7978 174.48 39.2878 174.92C51.6159 178.736 64.8097 178.736 77.1378 174.92C78.6778 174.48 80.1378 173.82 81.6278 173.23C83.1178 172.64 84.5278 171.85 85.8878 170.99C88.6834 169.373 91.1279 167.214 93.0778 164.64Z" fill="#E0E0E0"/>
<path d="M93.0778 126.78C91.3374 129.569 89.0227 131.956 86.2878 133.78C84.9196 134.682 83.5043 135.509 82.0478 136.26C80.5723 136.981 79.0602 137.626 77.5178 138.19C65.0204 142.57 51.4052 142.57 38.9078 138.19C37.3478 137.67 35.9078 136.93 34.3778 136.26C32.9193 135.507 31.5007 134.68 30.1278 133.78C27.3937 131.958 25.0818 129.571 23.3478 126.78C25.3032 129.349 27.7466 131.507 30.5378 133.13C31.8978 133.98 33.3678 134.64 34.7978 135.36C36.2278 136.08 37.7978 136.61 39.2878 137.05C51.6159 140.866 64.8097 140.866 77.1378 137.05C78.6778 136.61 80.1378 135.94 81.6278 135.35C83.1178 134.76 84.5278 133.98 85.8878 133.12C88.6802 131.503 91.1241 129.348 93.0778 126.78Z" fill="#E0E0E0"/>
<path d="M59.4778 147.07C59.4778 147.323 59.4028 147.571 59.2621 147.781C59.1215 147.992 58.9216 148.156 58.6877 148.253C58.4538 148.349 58.1964 148.375 57.9481 148.325C57.6998 148.276 57.4718 148.154 57.2928 147.975C57.1137 147.796 56.9918 147.568 56.9424 147.32C56.8931 147.071 56.9184 146.814 57.0153 146.58C57.1122 146.346 57.2762 146.146 57.4867 146.006C57.6972 145.865 57.9447 145.79 58.1978 145.79C58.5373 145.79 58.8629 145.925 59.1029 146.165C59.343 146.405 59.4778 146.731 59.4778 147.07Z" fill="#E0E0E0"/>
<path d="M79.9478 142.97C80.6548 142.97 81.2278 142.397 81.2278 141.69C81.2278 140.983 80.6548 140.41 79.9478 140.41C79.2409 140.41 78.6678 140.983 78.6678 141.69C78.6678 142.397 79.2409 142.97 79.9478 142.97Z" fill="#E0E0E0"/>
<path d="M36.4478 142.97C37.1548 142.97 37.7278 142.397 37.7278 141.69C37.7278 140.983 37.1548 140.41 36.4478 140.41C35.7409 140.41 35.1678 140.983 35.1678 141.69C35.1678 142.397 35.7409 142.97 36.4478 142.97Z" fill="#E0E0E0"/>
<path d="M81.2178 181.15C81.2178 181.403 81.1428 181.651 81.0021 181.861C80.8615 182.072 80.6616 182.236 80.4277 182.333C80.1938 182.429 79.9364 182.455 79.6881 182.405C79.4398 182.356 79.2118 182.234 79.0327 182.055C78.8537 181.876 78.7318 181.648 78.6824 181.4C78.633 181.151 78.6584 180.894 78.7553 180.66C78.8522 180.426 79.0162 180.226 79.2267 180.086C79.4372 179.945 79.6847 179.87 79.9378 179.87C80.1063 179.869 80.2734 179.901 80.4293 179.965C80.5852 180.029 80.7268 180.123 80.8459 180.242C80.965 180.361 81.0593 180.503 81.1231 180.659C81.187 180.815 81.2192 180.982 81.2178 181.15Z" fill="#E0E0E0"/>
<path d="M37.7278 181.15C37.7278 181.403 37.6528 181.651 37.5121 181.861C37.3715 182.072 37.1716 182.236 36.9377 182.333C36.7038 182.429 36.4464 182.455 36.1981 182.405C35.9498 182.356 35.7218 182.234 35.5428 182.055C35.3637 181.876 35.2418 181.648 35.1924 181.4C35.1431 181.151 35.1684 180.894 35.2653 180.66C35.3622 180.426 35.5262 180.226 35.7367 180.086C35.9472 179.945 36.1947 179.87 36.4478 179.87C36.6163 179.869 36.7834 179.901 36.9393 179.965C37.0952 180.029 37.2368 180.123 37.3559 180.242C37.475 180.361 37.5693 180.503 37.6331 180.659C37.697 180.815 37.7292 180.982 37.7278 181.15Z" fill="#E0E0E0"/>
<path d="M79.1879 73.55C67.5979 80.24 48.8179 80.24 37.1879 73.55C29.9579 69.36 27.1879 63.55 29.0479 58.17C29.4379 57.31 29.8379 56.47 30.2479 55.64C36.8091 42.7135 45.3223 30.8747 55.4879 20.54C55.8376 20.186 56.2541 19.9049 56.7133 19.713C57.1725 19.5212 57.6652 19.4224 58.1629 19.4224C58.6605 19.4224 59.1532 19.5212 59.6124 19.713C60.0716 19.9049 60.4881 20.186 60.8379 20.54C70.9854 30.8433 79.4851 42.6485 86.0379 55.54C86.4779 56.42 86.8979 57.29 87.3079 58.18C89.1279 63.64 86.3979 69.38 79.1879 73.55Z" fill="#C53F3F"/>
<path opacity="0.15" d="M58.2078 74.74C50.9478 74.74 44.2079 73.14 39.1379 70.23C33.8579 67.23 31.4979 63.29 32.6579 59.54C33.0079 58.79 33.3579 58.06 33.7179 57.33C40.0969 44.7915 48.3557 33.302 58.2078 23.26C58.2078 23.26 51.0078 37.92 49.3678 50.26C47.7278 62.6 51.9978 70.57 58.2078 74.74Z" fill="black"/>
<path opacity="0.5" d="M61.3079 26.08C63.6598 28.3851 65.8673 30.8331 67.9179 33.41C69.9779 35.97 71.9179 38.63 73.7379 41.35C74.6579 42.71 75.5279 44.11 76.3979 45.49C77.2679 46.87 78.0979 48.31 78.8579 49.76C80.4363 52.6307 81.8357 55.5964 83.0479 58.64L77.7879 50.36C76.0279 47.62 74.2579 44.89 72.4279 42.19C70.5979 39.49 68.7779 36.8 66.9279 34.11L61.3079 26.08Z" fill="white"/>
<path d="M60.3978 21.52L58.1978 0L55.9978 21.52C56.0166 21.7142 56.0867 21.8999 56.2009 22.058C56.3151 22.2162 56.4694 22.3411 56.6478 22.42C57.1287 22.6618 57.6595 22.7878 58.1978 22.7878C58.7361 22.7878 59.2669 22.6618 59.7478 22.42C59.9262 22.3411 60.0805 22.2162 60.1947 22.058C60.3089 21.8999 60.379 21.7142 60.3978 21.52Z" fill="#455A64"/>
<path d="M58.2079 125.3C68.9885 125.3 77.7279 116.561 77.7279 105.78C77.7279 94.9994 68.9885 86.26 58.2079 86.26C47.4273 86.26 38.6879 94.9994 38.6879 105.78C38.6879 116.561 47.4273 125.3 58.2079 125.3Z" fill="#C53F3F"/>
<path opacity="0.15" d="M58.2079 125.3C68.9885 125.3 77.7279 116.561 77.7279 105.78C77.7279 94.9994 68.9885 86.26 58.2079 86.26C47.4273 86.26 38.6879 94.9994 38.6879 105.78C38.6879 116.561 47.4273 125.3 58.2079 125.3Z" fill="black"/>
<path d="M58.2079 127.57C68.9885 127.57 77.7279 118.831 77.7279 108.05C77.7279 97.2694 68.9885 88.53 58.2079 88.53C47.4273 88.53 38.6879 97.2694 38.6879 108.05C38.6879 118.831 47.4273 127.57 58.2079 127.57Z" fill="#C53F3F"/>
<path opacity="0.2" d="M65.2378 126.26L58.9178 108.91L74.9178 118.14C75.0478 117.92 75.1778 117.7 75.2978 117.48L59.2978 108.24L77.4878 105.04C77.4878 104.78 77.3978 104.53 77.3478 104.28L59.1578 107.49L71.0278 93.35C70.8378 93.18 70.6478 93.01 70.4478 92.85L58.5778 107V88.54H57.8078V107L45.9178 92.85L45.3378 93.35L57.2078 107.49L39.0178 104.28C39.0178 104.53 38.9278 104.78 38.8878 105.04L57.0778 108.24L41.0778 117.48C41.1978 117.7 41.3278 117.92 41.4578 118.14L57.4578 108.91L51.1378 126.26L51.8578 126.52L58.1778 109.17L64.4878 126.52C64.7678 126.44 64.9978 126.35 65.2378 126.26Z" fill="black"/>
<path d="M58.2078 122.15C65.995 122.15 72.3078 115.837 72.3078 108.05C72.3078 100.263 65.995 93.95 58.2078 93.95C50.4206 93.95 44.1078 100.263 44.1078 108.05C44.1078 115.837 50.4206 122.15 58.2078 122.15Z" fill="#37474F"/>
<path d="M58.2078 93.95C54.7064 93.959 51.3337 95.2704 48.7459 97.6289C46.1582 99.9875 44.5405 103.225 44.2078 106.71C44.5215 110.211 46.1314 113.468 48.7219 115.843C51.3124 118.219 54.6966 119.541 58.2113 119.551C61.726 119.561 65.1177 118.258 67.7217 115.898C70.3256 113.537 71.9541 110.289 72.2878 106.79C71.9725 103.276 70.3517 100.009 67.7451 97.6315C65.1384 95.2545 61.7355 93.9409 58.2078 93.95Z" fill="#455A64"/>
<path d="M69.4679 104.46C69.4679 105.293 69.2209 106.107 68.7583 106.799C68.2957 107.491 67.6382 108.031 66.8689 108.35C66.0997 108.668 65.2532 108.752 64.4365 108.589C63.6199 108.427 62.8697 108.026 62.2809 107.437C61.6922 106.848 61.2912 106.098 61.1287 105.281C60.9663 104.465 61.0497 103.618 61.3683 102.849C61.687 102.08 62.2266 101.422 62.9189 100.96C63.6112 100.497 64.4252 100.25 65.2579 100.25C66.3744 100.25 67.4453 100.694 68.2348 101.483C69.0243 102.273 69.4679 103.343 69.4679 104.46Z" fill="#E0E0E0"/>
<path d="M66.8378 112.8C66.8378 113.281 66.6953 113.75 66.4283 114.15C66.1612 114.55 65.7817 114.861 65.3377 115.045C64.8937 115.229 64.4051 115.277 63.9337 115.183C63.4623 115.09 63.0294 114.858 62.6895 114.518C62.3497 114.178 62.1182 113.745 62.0245 113.274C61.9307 112.803 61.9788 112.314 62.1628 111.87C62.3467 111.426 62.6581 111.047 63.0578 110.78C63.4574 110.513 63.9272 110.37 64.4078 110.37C64.7273 110.369 65.0438 110.431 65.3393 110.552C65.6347 110.674 65.9031 110.853 66.129 111.079C66.3549 111.305 66.5339 111.573 66.6555 111.869C66.7772 112.164 66.8391 112.481 66.8378 112.8Z" fill="#E0E0E0"/>
<path d="M66.4678 170.05C66.515 168.934 66.3361 167.821 65.9418 166.776C65.5475 165.732 64.946 164.777 64.1734 163.971C63.4009 163.165 62.4732 162.523 61.4463 162.085C60.4194 161.647 59.3144 161.42 58.1978 161.42C57.0812 161.42 55.9762 161.647 54.9493 162.085C53.9224 162.523 52.9948 163.165 52.2222 163.971C51.4497 164.777 50.8481 165.732 50.4538 166.776C50.0595 167.821 49.8806 168.934 49.9278 170.05C49.9278 170.05 49.9278 173.1 49.9278 173.63L51.7778 217.57C51.8219 218.866 52.3681 220.095 53.3011 220.996C54.234 221.897 55.4807 222.401 56.7778 222.4H59.5578C60.855 222.401 62.1016 221.897 63.0346 220.996C63.9675 220.095 64.5137 218.866 64.5578 217.57L66.4678 173.64C66.4978 173.1 66.4678 170.05 66.4678 170.05Z" fill="#455A64"/>
<path d="M59.5878 222.4H56.8078C55.5107 222.401 54.264 221.897 53.331 220.996C52.3981 220.095 51.8519 218.866 51.8078 217.57L49.9178 173.64C49.8706 172.524 50.0495 171.411 50.4438 170.366C50.8381 169.321 51.4396 168.367 52.2122 167.561C52.9847 166.755 53.9124 166.113 54.9393 165.675C55.9662 165.237 57.0712 165.01 58.1878 165.01C59.3044 165.01 60.4094 165.237 61.4363 165.675C62.4632 166.113 63.3909 166.755 64.1634 167.561C64.936 168.367 65.5375 169.321 65.9318 170.366C66.3261 171.411 66.505 172.524 66.4578 173.64L64.6078 217.58C64.5611 218.878 64.011 220.107 63.074 221.007C62.137 221.906 60.8867 222.406 59.5878 222.4Z" fill="#37474F"/>
<path d="M58.1978 252.2C57.5537 252.2 56.9347 251.95 56.4719 251.502C56.009 251.054 55.7386 250.444 55.7178 249.8L53.5678 176.98C53.545 176.358 53.6478 175.737 53.8702 175.156C54.0927 174.574 54.4301 174.044 54.8623 173.596C55.2945 173.147 55.8127 172.791 56.3858 172.548C56.959 172.305 57.5752 172.18 58.1978 172.18C58.8204 172.18 59.4367 172.305 60.0098 172.548C60.5829 172.791 61.1011 173.147 61.5333 173.596C61.9656 174.044 62.303 174.574 62.5254 175.156C62.7478 175.737 62.8507 176.358 62.8278 176.98L60.6778 249.8C60.657 250.444 60.3866 251.054 59.9238 251.502C59.4609 251.95 58.8419 252.2 58.1978 252.2Z" fill="#C53F3F"/>
<path opacity="0.2" d="M55.7178 249.8C55.7178 250.463 55.9812 251.099 56.4501 251.568C56.9189 252.037 57.5548 252.3 58.2178 252.3C58.8809 252.3 59.5168 252.037 59.9856 251.568C60.4545 251.099 60.7178 250.463 60.7178 249.8L60.9178 240.64L60.8078 240.35C60.8078 240.35 60.4578 244.62 58.1678 243.56C56.5278 242.8 55.5178 237.71 55.1678 232.65L55.7178 249.8Z" fill="black"/>
<path opacity="0.5" d="M62.8279 176.98C62.8507 176.358 62.7478 175.737 62.5254 175.156C62.303 174.574 61.9656 174.044 61.5334 173.596C61.1011 173.147 60.583 172.791 60.0098 172.548C59.4367 172.305 58.8204 172.18 58.1978 172.18C57.9364 172.183 57.6756 172.206 57.4178 172.25C60.2478 172.79 61.1478 174.51 61.3078 181.38C61.4678 188.57 60.7578 246.82 60.7578 246.82L62.8279 176.98Z" fill="white"/>
<path d="M96.7678 144.81C95.6478 144.17 94.0978 144.28 92.3678 145.28C90.4812 146.524 88.9255 148.208 87.8349 150.187C86.7443 152.166 86.1516 154.381 86.1078 156.64L87.5978 205.11C87.5628 205.523 87.6367 205.938 87.8122 206.313C87.9876 206.689 88.2585 207.012 88.5978 207.25C89.1478 207.56 91.1478 208.74 91.7178 209.05C92.0976 209.221 92.5157 209.289 92.93 209.246C93.3443 209.204 93.7402 209.054 94.0778 208.81L96.7778 207.26C97.7441 206.624 98.5532 205.777 99.1439 204.783C99.7347 203.788 100.092 202.673 100.188 201.52L101.698 150.95C101.758 148.79 101.048 147.27 99.8578 146.59L96.7678 144.81Z" fill="#263238"/>
<path d="M94.1278 208.83C92.2978 209.89 90.7678 209.03 90.7078 206.92L89.2078 158.45C89.2503 156.187 89.8434 153.968 90.9359 151.985C92.0283 150.002 93.5872 148.315 95.4778 147.07C99.0578 145 101.858 146.75 101.748 150.97L100.238 201.54C100.142 202.693 99.7847 203.808 99.1939 204.803C98.6032 205.797 97.7941 206.644 96.8278 207.28L94.1278 208.83Z" fill="#37474F"/>
<path d="M96.7678 144.81C97.3078 145.11 99.3778 146.31 99.8978 146.61C98.7678 145.96 97.2178 146.07 95.4678 147.07C92.7665 148.831 90.7701 151.486 89.8278 154.57L86.7178 152.77C87.6665 149.686 89.6656 147.033 92.3678 145.27C94.1078 144.28 95.6478 144.17 96.7678 144.81Z" fill="#455A64"/>
<path d="M101.398 157.64L98.5778 156.02L95.4778 157.81V236.94C98.7378 238.83 101.778 238.94 104.228 237.5L107.308 235.71C110.388 233.95 112.538 229.82 113.048 223.87L115.918 191.29C116.968 178.51 110.178 162.73 101.398 157.64Z" fill="#C53F3F"/>
<g opacity="0.2">
<path d="M101.398 157.64L98.5778 156.02L95.4778 157.81V236.94C98.7378 238.83 101.778 238.94 104.228 237.5L107.308 235.71C110.388 233.95 112.538 229.82 113.048 223.87L115.918 191.29C116.968 178.51 110.178 162.73 101.398 157.64Z" fill="white"/>
</g>
<path d="M95.4778 236.94V157.83L98.2878 159.46C107.068 164.53 113.858 180.31 112.758 193.08L109.918 225.64C109.018 236.35 102.818 241.18 95.4778 236.94Z" fill="#C53F3F"/>
<path opacity="0.2" d="M95.4778 236.94V157.83L98.2878 159.46C107.068 164.53 113.858 180.31 112.758 193.08L109.918 225.64C109.018 236.35 102.818 241.18 95.4778 236.94Z" fill="black"/>
<path opacity="0.2" d="M110.018 224.76C109.568 229.97 104.398 231.98 100.638 227.99C96.8778 224 95.4778 218.83 95.4778 202.75V236.94C102.818 241.18 109.018 236.35 109.938 225.67L110.018 224.76Z" fill="black"/>
<path d="M19.6378 144.81C20.7578 144.17 22.3078 144.28 24.0378 145.28C25.9256 146.523 27.4828 148.207 28.5751 150.186C29.6674 152.165 30.2621 154.38 30.3078 156.64L28.8078 205.11C28.8428 205.523 28.7689 205.938 28.5934 206.313C28.4179 206.689 28.1471 207.012 27.8078 207.25C27.2578 207.56 25.2578 208.74 24.6978 209.05C24.3163 209.221 23.8966 209.288 23.4808 209.246C23.0649 209.204 22.6674 209.054 22.3278 208.81L19.6378 207.26C18.6692 206.626 17.8577 205.779 17.2651 204.785C16.6725 203.79 16.3144 202.674 16.2178 201.52L14.7078 150.95C14.6578 148.79 15.3678 147.27 16.5578 146.59C17.0278 146.31 19.0978 145.11 19.6378 144.81Z" fill="#263238"/>
<path d="M22.2778 208.83C24.1078 209.89 25.6378 209.03 25.6978 206.92L27.1978 158.45C27.1491 156.187 26.5522 153.969 25.4585 151.987C24.3647 150.005 22.8066 148.318 20.9178 147.07C17.3378 145 14.5278 146.75 14.6378 150.97L16.1478 201.54C16.2443 202.694 16.6025 203.81 17.1951 204.805C17.7877 205.799 18.5991 206.646 19.5678 207.28L22.2778 208.83Z" fill="#37474F"/>
<path d="M19.6378 144.81C19.0978 145.11 17.0278 146.31 16.5078 146.61C17.6378 145.96 19.1978 146.07 20.9378 147.07C23.6421 148.828 25.6393 151.484 26.5778 154.57L29.6978 152.77C28.745 149.686 26.7425 147.032 24.0378 145.27C22.3078 144.28 20.7578 144.17 19.6378 144.81Z" fill="#455A64"/>
<path d="M15.0078 157.64L17.8278 156.02L20.9378 157.81V236.94C17.6678 238.83 14.6278 238.94 12.1778 237.5L9.09781 235.71C6.02781 233.95 3.87781 229.82 3.35781 223.87L0.547817 191.29C-0.562183 178.51 6.22781 162.73 15.0078 157.64Z" fill="#C53F3F"/>
<g opacity="0.2">
<path d="M15.0078 157.64L17.8278 156.02L20.9378 157.81V236.94C17.6678 238.83 14.6278 238.94 12.1778 237.5L9.09781 235.71C6.02781 233.95 3.87781 229.82 3.35781 223.87L0.547817 191.29C-0.562183 178.51 6.22781 162.73 15.0078 157.64Z" fill="white"/>
</g>
<path d="M20.9178 236.94V157.83L18.0978 159.46C9.31783 164.53 2.52784 180.31 3.62784 193.08L6.46784 225.64C7.38784 236.35 13.5878 241.18 20.9178 236.94Z" fill="#C53F3F"/>
<path opacity="0.2" d="M20.9178 236.94V157.83L18.0978 159.46C9.31783 164.53 2.52784 180.31 3.62784 193.08L6.46784 225.64C7.38784 236.35 13.5878 241.18 20.9178 236.94Z" fill="black"/>
<path opacity="0.2" d="M6.38782 224.76C6.83782 229.97 12.0178 231.98 15.7678 227.99C19.5178 224 20.9278 218.83 20.9378 202.75V236.94C13.5878 241.18 7.38782 236.35 6.46782 225.67L6.38782 224.76Z" fill="black"/>
</svg>
